<svg xmlns="http://www.w3.org/2000/svg" xmlns:xlink="http://www.w3.org/1999/xlink" fill="none" version="1.1" width="18" height="18" viewBox="0 0 18 18"><g><path d="M15.6,0L2.4,0C1.0745,0,0,1.0745,0,2.4L0,15.6C0,16.9255,1.0745,18,2.4,18L15.6,18C16.9255,18,18,16.9255,18,15.6L18,2.4C18,1.0745,16.9255,7.45058e-8,15.6,0ZM7.7536,3.5106Q11.2103,2.4567,12.9719,5.6783C12.3353,5.331,10.4252,4.9452,8.3802,6.0063Q6.3352,7.0674,5.9107,9.3827Q5.0794,8.4957,5.0417,7.0657Q5.14,4.3818,7.7536,3.5106ZM6.6857,14.5551C1.6833,13.5856,2.8214,9.2155,4.0721,7.2904Q4.0158,9.9883,6.6155,11.4779Q6.9246,11.6184,6.8263,12.068L6.7279,12.6441Q6.5979,13.0376,6.8456,13.0797Q6.9247,13.0797,7.1073,12.9532L8.0629,12.3209Q8.2596,12.1804,8.5125,12.2225C8.7654,12.2647,10.3814,12.6863,11.9833,11.3514C11.9832,11.3514,11.6882,15.5247,6.6857,14.5551ZM11.7022,14.1758C12.0254,14.0213,13.5992,12.1663,12.8543,9.6511Q12.1094,7.1359,9.5803,6.5738Q10.8731,6.0258,12.3907,6.4332Q14.6952,7.1077,14.9622,9.2999Q15.4118,13.2202,11.7022,14.1758Z" fill="#01CC7A" fill-opacity="1" style="mix-blend-mode:passthrough"/></g></svg>