<svg xmlns="http://www.w3.org/2000/svg" xmlns:xlink="http://www.w3.org/1999/xlink" fill="none" version="1.1" width="19.17635726928711" height="17.55819320678711" viewBox="0 0 19.17635726928711 17.55819320678711"><g><path d="M5.42549,0L0.6875,0C0.309375,0,0,0.309375,0,0.6875L0,16.7346C0,17.1127,0.309375,17.4221,0.6875,17.4221L5.42549,17.4221C5.80362,17.4221,6.11299,17.1127,6.11299,16.7346L6.11299,0.6875C6.11299,0.309375,5.80362,-1.63913e-7,5.42549,0ZM4.58474,5.27224L1.52825,5.27224C1.14855,5.27224,0.840748,4.96444,0.840748,4.58474C0.840748,4.20505,1.14855,3.89724,1.52825,3.89724L4.58474,3.89724C4.96444,3.89724,5.27224,4.20505,5.27224,4.58474C5.27224,4.96444,4.96444,5.27224,4.58474,5.27224ZM4.58474,2.82704L1.52825,2.82704C1.14855,2.82704,0.840748,2.51924,0.840748,2.13954C0.840748,1.75985,1.14855,1.45204,1.52825,1.45204L4.58474,1.45204C4.96444,1.45204,5.27224,1.75985,5.27224,2.13954C5.27224,2.51924,4.96444,2.82704,4.58474,2.82704ZM10.9272,0L7.71745,0C7.33932,0,7.02995,0.309375,7.02995,0.6875L7.02995,16.7346C7.02995,17.1127,7.33932,17.4221,7.71745,17.4221L10.9272,17.4221C11.3053,17.4221,11.6147,17.1127,11.6147,16.7346L11.6147,0.6875C11.6147,0.309375,11.3053,-1.63913e-7,10.9272,0ZM10.6978,5.27224L7.9469,5.27224C7.5672,5.27224,7.2594,4.96444,7.2594,4.58474C7.2594,4.20505,7.5672,3.89724,7.9469,3.89724L10.6978,3.89724C11.0774,3.89724,11.3853,4.20505,11.3853,4.58474C11.3853,4.96444,11.0774,5.27224,10.6978,5.27224ZM10.6978,2.82704L7.9469,2.82704C7.5672,2.82704,7.2594,2.51924,7.2594,2.13954C7.2594,1.75985,7.5672,1.45204,7.9469,1.45204L10.6978,1.45204C11.0774,1.45204,11.3853,1.75985,11.3853,2.13954C11.3853,2.51924,11.0774,2.82704,10.6978,2.82704ZM19.1645,16.1964L16.2543,0.725592C16.1844,0.353977,15.8232,0.107143,15.4516,0.177031L12.5429,0.724195C12.1712,0.794105,11.9244,1.15532,11.9943,1.52694L14.9045,16.9978C14.9744,17.3694,15.3356,17.6162,15.7072,17.5464L18.616,16.9992C18.9876,16.9293,19.2344,16.5681,19.1645,16.1964ZM12.5276,2.72551C12.5133,2.66968,12.506,2.61231,12.506,2.55473C12.5061,2.2481,12.7129,1.96866,13.0237,1.88934L15.2249,1.32752C15.5927,1.23359,15.9671,1.45572,16.061,1.82364C16.0753,1.87946,16.0826,1.93684,16.0826,1.99442C16.0825,2.30104,15.8757,2.58049,15.5649,2.65981L13.3637,3.22162C13.308,3.2359,13.2507,3.24313,13.1932,3.24315C12.8865,3.24315,12.6069,3.03639,12.5276,2.72551ZM16.1697,5.02904L13.9685,5.59088C13.9127,5.60515,13.8555,5.61238,13.7979,5.61241C13.4912,5.61241,13.2116,5.40562,13.1323,5.09476C13.118,5.03894,13.1108,4.98156,13.1108,4.92398C13.1109,4.61736,13.3176,4.33791,13.6284,4.25859L15.8296,3.69675C16.1975,3.60282,16.5718,3.82495,16.6658,4.19287C16.6801,4.24869,16.6873,4.30607,16.6873,4.36365C16.6872,4.67027,16.4804,4.94972,16.1697,5.02904Z" fill="#445564" fill-opacity="1" style="mix-blend-mode:passthrough"/></g></svg>