<svg xmlns="http://www.w3.org/2000/svg" xmlns:xlink="http://www.w3.org/1999/xlink" fill="none" version="1.1" width="36" height="36" viewBox="0 0 36 36"><defs><clipPath id="master_svg0_2_784"><path d="M0 11C9.81054792658386e-16 4.924867751861272 4.924867751861274 0 11 0L25 0C31.075132248138726 0 36 4.924867751861274 36 11L36 25C36 31.075132248138726 31.075132248138726 36 25 36L11 36C4.924867751861274 36 0 31.075132248138726 0 25Z"/></clipPath></defs><g clip-path="url(#master_svg0_2_784)"><path d="M0 11C9.81054792658386e-16 4.924867751861272 4.924867751861274 0 11 0L25 0C31.075132248138726 0 36 4.924867751861274 36 11L36 25C36 31.075132248138726 31.075132248138726 36 25 36L11 36C4.924867751861274 36 0 31.075132248138726 0 25Z" fill="#34A5DD" fill-opacity="1"/><g><path d="M0,18C0,8.05887,8.05887,0,18,0C27.9411,0,36,8.05887,36,18C36,27.9411,27.9411,36,18,36C8.05887,36,0,27.9411,0,18" fill="#FCF1E1" fill-opacity="1" style="mix-blend-mode:passthrough"/></g><g><path d="M0,18C0,8.05887,8.05887,0,18,0C27.9411,0,36,8.05887,36,18C36,27.9411,27.9411,36,18,36C8.05887,36,0,27.9411,0,18M19.6222,30.0763C21.8264,29.8466,23.3725,29.343,23.6087,28.7779C23.77,28.3916,24.0395,25.9041,24.1174,24.082C24.1368,23.6276,24.1861,22.7101,24.227,22.043C24.2808,21.1651,24.3087,20.194,24.3279,18.5273C24.3425,17.2608,24.3713,16.0585,24.3919,15.8555C24.4125,15.6524,24.4469,15.2648,24.4682,14.9941C24.5738,13.6532,24.6534,13.0941,24.9788,11.4082C26.1153,5.52094,25.9663,5.15838,23.5193,7.85743C22.3909,9.10196,22.0668,9.44338,21.1831,10.3184C18.8767,12.6021,17.7998,14.0308,17.3367,15.4213C16.6487,17.4868,16.8458,19.2296,17.8231,19.7225C18.496,20.0619,18.8612,20.6976,19.2333,22.1773C19.7271,24.1407,19.6503,25.5082,18.8242,29.46C18.7576,29.7785,18.7031,30.0593,18.7031,30.084C18.7031,30.1448,18.9875,30.1425,19.6222,30.0763ZM14.5288,14.2535C15.3971,14.0285,16.6055,12.9488,17.1259,11.9331C17.2847,11.6232,17.344,11.4148,17.4358,10.8457C17.4834,10.5508,17.6137,10.2659,17.7557,10.1465C17.9229,10.0058,17.7722,9.89023,17.3099,9.80477C16.3931,9.63529,15.1579,10.7743,14.2199,12.6544C13.5886,13.9196,13.6949,14.4696,14.5288,14.2535Z" fill="#6AC2ED" fill-opacity="1" style="mix-blend-mode:passthrough"/></g><g><path d="M0,18C0,8.05887,8.05887,0,18,0C27.9411,0,36,8.05887,36,18C36,27.9411,27.9411,36,18,36C8.05887,36,0,27.9411,0,18M22.3242,32.7982C30.7765,32.4515,34.295,29.2202,27.9492,27.6324C26.5265,27.2764,24.6094,27.0333,24.6094,27.2089C24.6094,27.2991,24.7198,27.3307,25.418,27.4402C30.3468,28.2134,32.0451,29.4619,29.9928,30.8034C27.7696,32.2567,20.9483,32.9803,14.6732,32.4286C14.382,32.403,14.2734,32.4278,14.2734,32.5198C14.2734,32.6162,14.2756,32.6167,14.9615,32.6752C17.1508,32.862,19.7221,32.905,22.3242,32.7982ZM20.5312,31.7089C25.6352,31.4534,28.5045,30.3639,27.5093,29.0592C27.2303,28.6933,26.381,28.2593,25.6497,28.109C25.1207,28.0002,25.2108,28.1166,25.8398,28.3547C29.4166,29.7083,26.2482,31.2596,19.3711,31.5217C18.7392,31.5458,18.5977,31.5694,18.5977,31.6503C18.5977,31.7995,18.6743,31.8018,20.5312,31.7089ZM8.41891,31.6633C8.53488,31.5785,8.45585,31.5097,8.13206,31.4137C5.79544,30.721,4.65071,29.8907,4.98628,29.1321C5.24914,28.5379,6.07737,28.1983,8.606,27.6483C8.69992,27.6278,8.74499,27.5395,8.68971,27.4842C8.63347,27.428,7.86993,27.5417,7.20703,27.705C3.44025,28.6329,3.73481,30.4857,7.82226,31.5747C8.41065,31.7315,8.33999,31.721,8.41891,31.6633ZM13.0876,31.3857C13.1364,31.2458,13.1029,31.2356,11.9151,31.0277C8.48502,30.4272,7.07927,29.5969,7.93832,28.6787C8.03916,28.5709,8.02335,28.5577,7.88204,28.6318C7.48707,28.8387,7.28883,29.3149,7.45487,29.6579C7.73399,30.2345,9.3393,30.8537,11.4517,31.1997C11.8725,31.2686,12.3434,31.3468,12.498,31.3735C12.8666,31.4371,13.0682,31.4413,13.0876,31.3857ZM19.5996,30.1477C22.0964,29.8936,23.5706,29.3493,23.7256,28.6242C23.9078,27.7717,24.2334,24.4576,24.1695,24.1064C24.1583,24.0447,24.1915,23.298,24.2433,22.4473C24.3161,21.2536,24.3434,20.4268,24.3631,18.8262C24.3886,16.7481,24.406,16.3984,24.5756,14.5371C24.6801,13.391,24.7248,13.09,25.0141,11.584C26.2168,5.32382,26.0528,4.98284,23.3068,8.0332C22.8542,8.53594,21.9296,9.50889,21.2522,10.1953C18.289,13.198,17.4515,14.4121,17.0566,16.2773C16.6851,18.0323,16.9576,19.3389,17.7792,19.7438C17.7817,19.745,17.7837,19.7459,17.7861,19.7472C18.4991,20.0974,18.903,20.8522,19.2784,22.5352C19.668,24.2813,19.5856,25.4849,18.8147,29.3108C18.7203,29.7793,18.6513,30.1709,18.6614,30.1809C18.6938,30.2133,19.0944,30.1992,19.5996,30.1477ZM14.6864,14.2419C15.8111,13.8504,17.222,12.3209,17.3977,11.3027C17.4177,11.1867,17.4521,10.989,17.4741,10.8633C17.5292,10.5489,17.6277,10.3353,17.7912,10.1756C17.9658,10.0051,17.9661,10.0067,17.7451,9.9022C16.7651,9.43877,15.782,10.0524,14.6337,11.8441C13.4828,13.6401,13.505,14.6531,14.6864,14.2419Z" fill="#34A5DD" fill-opacity="1" style="mix-blend-mode:passthrough"/></g><g><path d="M15.433636474609376,30.13922353515625C12.837246474609376,29.98052353515625,11.146866474609375,29.70352353515625,10.397736474609374,29.31372353515625C9.675786474609374,28.93812353515625,9.600776474609376,28.74852353515625,9.339886474609376,26.64032353515625L9.253376474609375,25.94122353515625C9.233806474609375,25.78312353515625,9.176416474609375,25.63212353515625,9.086066474609375,25.50092353515625C8.609406474609376,24.80882353515625,7.857226474609375,24.68552353515625,6.597146474609375,25.09282353515625C5.297223674609375,25.51302353515625,5.010669474609375,25.05362353515625,5.645556474609375,23.56722353515625C6.302029474609375,22.03032353515625,6.959436474609375,21.12752353515625,8.650116474609375,19.44142353515625C9.780296474609376,18.314223535156252,9.861996474609375,18.20832353515625,9.946766474609376,17.76062353515625C10.650066474609375,14.04570353515625,13.538026474609374,9.08763353515625,16.277336474609378,6.89217353515625C17.882036474609375,5.60608453515625,19.239236474609378,5.13117953515625,21.357436474609376,5.11456553515625C22.251836474609377,5.10755053515625,22.364336474609374,5.09993653515625,22.587936474609375,5.03127153515625C23.904836474609375,4.62684553515625,24.952136474609375,4.91432233515625,25.396336474609374,5.8021715351562495C25.555036474609373,6.11941353515625,25.555936474609375,6.15234353515625,25.406036474609376,6.15234353515625C25.085436474609374,6.15234353515625,24.649836474609376,6.50170353515625,23.792636474609374,7.44622353515625C22.447036474609376,8.92887353515625,22.100336474609374,9.29795353515625,21.325536474609375,10.07227353515625C17.786436474609374,13.60913353515625,16.873336474609374,15.17542353515625,16.875436474609373,17.705723535156253C16.876436474609378,18.882523535156253,17.127036474609376,19.45582353515625,17.788636474609376,19.795623535156253C18.446136474609375,20.13312353515625,18.807036474609376,20.765423535156252,19.158836474609373,22.19592353515625C19.649036474609375,24.18922353515625,19.575836474609375,25.43512353515625,18.726636474609375,29.54882353515625L18.642336474609372,29.95692353515625C18.623236474609374,30.04972353515625,18.548336474609375,30.12082353515625,18.454636474609373,30.13512353515625C18.300436474609377,30.15862353515625,15.806536474609375,30.16202353515625,15.433636474609376,30.13922353515625ZM14.592276474609376,14.32274353515625C15.890536474609375,13.94090353515625,17.286036474609375,12.34178353515625,17.488536474609376,11.00391353515625C17.553436474609377,10.57533353515625,17.665036474609373,10.31506353515625,17.848836474609374,10.163533535156251C18.221036474609377,9.85676353515625,17.214236474609375,9.572883535156251,16.586736474609374,9.80766353515625C15.522236474609375,10.205943535156251,13.823136474609376,12.625613535156251,13.753856474609375,13.84192353515625L13.747356474609376,13.95618353515625C13.741016474609374,14.06748353515625,13.782456474609376,14.17619353515625,13.861286474609376,14.25501353515625C14.006986474609375,14.40071353515625,14.250486474609374,14.42327353515625,14.592276474609376,14.32274353515625ZM27.167136474609375,26.18552353515625C26.741636474609376,26.09462353515625,24.990536474609375,24.89032353515625,24.420736474609374,24.29672353515625L24.404436474609376,24.27982353515625C24.261136474609376,24.13042353515625,24.187736474609373,23.92732353515625,24.202636474609374,23.72082353515625C24.315436474609374,22.15572353515625,24.373236474609374,20.75982353515625,24.393336474609374,19.11912353515625C24.418636474609375,17.057823535156253,24.412336474609376,17.114323535156252,24.571236474609375,17.52282353515625C24.749436474609375,17.98102353515625,25.016536474609374,18.43262353515625,25.404336474609376,18.93162353515625C27.109136474609375,21.12532353515625,27.854336474609376,23.00302353515625,27.859836474609374,25.11912353515625C27.862136474609375,26.01102353515625,27.677836474609375,26.29462353515625,27.167136474609375,26.18552353515625Z" fill="#191A1A" fill-opacity="1" style="mix-blend-mode:passthrough"/><path d="M17.026336474609373,30.24762353515625Q18.346036474609377,30.24582353515625,18.468736474609376,30.22712353515625Q18.688636474609375,30.19362353515625,18.733536474609373,29.97582353515625L18.817836474609376,29.56762353515625Q19.456136474609373,26.47582353515625,19.537936474609374,25.08272353515625Q19.620336474609374,23.68232353515625,19.249336474609375,22.17372353515625Q18.982336474609376,21.08822353515625,18.669236474609377,20.53972353515625Q18.348936474609374,19.97852353515625,17.831236474609376,19.71272353515625Q17.364436474609377,19.473123535156247,17.169636474609376,19.02722353515625Q16.969336474609374,18.56882353515625,16.968636474609376,17.70562353515625Q16.967036474609372,15.83312353515625,17.853036474609375,14.31334353515625Q18.745536474609374,12.78234353515625,21.391336474609375,10.13814353515625Q22.294736474609376,9.235283535156249,23.861636474609377,7.50881353515625Q25.008136474609376,6.24548353515625,25.406036474609376,6.24548353515625Q25.486136474609374,6.24548353515625,25.527136474609375,6.22766353515625Q25.612636474609374,6.19052353515625,25.610036474609377,6.09364353515625Q25.607836474609375,6.01689353515625,25.479636474609375,5.76050153515625Q25.127936474609374,5.05746753515625,24.344036474609375,4.84230553515625Q23.574136474609375,4.63097153515625,22.560536474609375,4.94224003515625Q22.327536474609374,5.01381953515625,21.356736474609374,5.02143353515625Q19.752636474609375,5.03401553515625,18.594036474609375,5.43940853515625Q17.435036474609376,5.84496553515625,16.219136474609375,6.81949353515625Q14.151086474609375,8.47694353515625,12.268076474609375,11.70972353515625Q10.385706474609375,14.94142353515625,9.855256474609375,17.74322353515625Q9.795826474609374,18.05722353515625,9.616726474609376,18.28932353515625Q9.427706474609375,18.53442353515625,8.584346474609376,19.37542353515625Q7.311116474609375,20.64532353515625,6.684716474609375,21.50542353515625Q6.056417474609375,22.36822353515625,5.559906474609375,23.53062353515625Q5.064660474609375,24.69012353515625,5.316775504609375,25.09432353515625Q5.581665474609375,25.51902353515625,6.625796474609375,25.18142353515625Q7.549406474609375,24.88292353515625,8.120326474609374,24.97652353515625Q8.674366474609375,25.06732353515625,9.009366474609376,25.55372353515625Q9.133966474609375,25.73462353515625,9.160946474609375,25.95262353515625L9.247456474609375,26.65182353515625Q9.444576474609375,28.24472353515625,9.609306474609376,28.66102353515625Q9.716866474609375,28.93282353515625,9.901536474609376,29.10262353515625Q10.046846474609374,29.23612353515625,10.354746474609374,29.39632353515625Q11.499986474609376,29.99212353515625,15.427936474609375,30.23222353515625Q15.710336474609376,30.24942353515625,17.026336474609373,30.24762353515625ZM18.551136474609375,29.93812353515625Q18.532336474609373,30.02902353515625,18.440636474609377,30.04302353515625Q18.331836474609375,30.05962353515625,17.026036474609377,30.06142353515625Q15.715836474609375,30.06322353515625,15.439336474609375,30.04632353515625Q11.550866474609375,29.80872353515625,10.440716474609374,29.23112353515625Q10.154716474609376,29.08232353515625,10.027586474609375,28.96542353515625Q9.874356474609375,28.82462353515625,9.782516474609375,28.59252353515625Q9.626526474609374,28.19832353515625,9.432316474609376,26.62892353515625L9.345796474609376,25.92982353515625Q9.313226474609376,25.66652353515625,9.162776474609375,25.44812353515625Q8.782786474609376,24.89632353515625,8.150456474609374,24.79272353515625Q7.535026474609375,24.69182353515625,6.568506474609375,25.00422353515625Q5.662745474609375,25.29702353515625,5.474820474609375,24.99572353515625Q5.274114074609375,24.67402353515625,5.731205474609375,23.60382353515625Q6.219421474609375,22.46082353515625,6.835296474609375,21.61512353515625Q7.4530464746093745,20.76682353515625,8.715886474609375,19.50732353515625Q9.567806474609375,18.65772353515625,9.764216474609375,18.40312353515625Q9.970556474609374,18.13562353515625,10.038276474609376,17.777923535156248Q10.562776474609375,15.00752353515625,12.429026474609376,11.80347353515625Q14.294606474609376,8.60060353515625,16.335636474609373,6.96484353515625Q17.526636474609376,6.0102535351562505,18.655636474609373,5.6152245351562495Q19.784936474609374,5.22003653515625,21.358136474609374,5.20769753515625Q22.356136474609375,5.19986953515625,22.615236474609375,5.12030253515625Q23.577036474609375,4.82493123515625,24.294736474609376,5.02193053515625Q24.998436474609374,5.21510253515625,25.313036474609376,5.84384153515625Q25.388836474609374,5.99536353515625,25.412736474609375,6.0591935351562505L25.406036474609376,6.05921353515625Q25.132836474609373,6.05921353515625,24.742336474609374,6.37243353515625Q24.371536474609375,6.66980353515625,23.723636474609375,7.38363353515625Q22.159736474609375,9.106853535156251,21.259636474609373,10.00639353515625Q18.596836474609376,12.66758353515625,17.692136474609377,14.21953353515625Q16.780736474609377,15.78282353515625,16.782336474609373,17.705723535156253Q16.783036474609375,18.60772353515625,16.998936474609373,19.10182353515625Q17.220336474609375,19.60852353515625,17.746136474609376,19.87842353515625Q18.214636474609375,20.11892353515625,18.507536474609374,20.63212353515625Q18.807636474609374,21.15792353515625,19.068436474609374,22.21822353515625Q19.432736474609374,23.69942353515625,19.352036474609378,25.07172353515625Q19.270936474609375,26.45142353515625,18.635436474609374,29.53002353515625L18.551136474609375,29.93812353515625ZM13.654366474609375,13.95089353515625Q13.642036474609375,14.16747353515625,13.795426474609375,14.32087353515625Q14.052996474609374,14.57843353515625,14.618556474609376,14.41209353515625Q15.618336474609375,14.11804353515625,16.521536474609377,13.08307353515625Q17.424736474609375,12.048103535156251,17.580636474609374,11.01784353515625Q17.669236474609377,10.43224353515625,17.908036474609375,10.23540353515625Q18.111336474609374,10.06789353515625,17.970136474609376,9.888003535156251Q17.873636474609377,9.764973535156251,17.617936474609373,9.69288353515625Q17.053336474609374,9.53366353515625,16.554136474609376,9.72043353515625Q15.728736474609375,10.02925353515625,14.720876474609375,11.46451353515625Q13.714356474609374,12.89788353515625,13.660876474609376,13.83663353515625L13.654366474609375,13.95089353515625ZM14.565996474609374,14.23339353515625Q14.106516474609375,14.36853353515625,13.927136474609375,14.18915353515625Q13.832746474609374,14.09476353515625,13.840336474609375,13.96148353515625L13.846846474609375,13.84722353515625Q13.897306474609374,12.96148353515625,14.873316474609375,11.57155353515625Q15.848036474609374,10.18349353515625,16.619436474609373,9.89489353515625Q17.061436474609373,9.72949353515625,17.567436474609373,9.87215353515625Q17.764636474609375,9.927763535156249,17.823636474609373,10.00298353515625Q17.852536474609373,10.039813535156249,17.789636474609374,10.09167353515625Q17.495736474609373,10.333863535156251,17.396436474609374,10.989973535156249Q17.248636474609377,11.96654353515625,16.381136474609377,12.96060353515625Q15.513636474609376,13.95466353515625,14.565996474609374,14.23339353515625ZM27.783936474609376,26.07842353515625Q27.954736474609376,25.81552353515625,27.952936474609373,25.11892353515625Q27.948736474609376,23.51412353515625,27.355836474609376,22.02012353515625Q26.764636474609375,20.53022353515625,25.477836474609376,18.87452353515625Q24.915436474609375,18.15082353515625,24.658036474609375,17.48902353515625Q24.652936474609376,17.475923535156248,24.642836474609375,17.449923535156252Q24.576236474609374,17.277623535156252,24.545236474609375,17.24272353515625Q24.506436474609377,17.19902353515625,24.453336474609376,17.20392353515625Q24.395636474609375,17.209223535156248,24.367136474609374,17.26562353515625Q24.348836474609374,17.30172353515625,24.339636474609375,17.384523535156248Q24.319036474609376,17.56882353515625,24.302636474609375,18.92022353515625Q24.301036474609376,19.05552353515625,24.300236474609374,19.11802353515625Q24.271436474609374,21.47022353515625,24.109736474609374,23.71412353515625Q24.083436474609375,24.07982353515625,24.337236474609377,24.34432353515625L24.353536474609374,24.36122353515625Q24.787436474609375,24.81322353515625,25.795236474609375,25.50642353515625Q26.810436474609375,26.20462353515625,27.147736474609374,26.27662353515625Q27.593436474609376,26.37182353515625,27.783936474609376,26.07842353515625ZM27.182736474609374,22.08882353515625Q27.762536474609377,23.54992353515625,27.766636474609374,25.11942353515625Q27.768336474609374,25.76052353515625,27.627736474609375,25.97692353515625Q27.507036474609375,26.16292353515625,27.186636474609376,26.09442353515625Q26.885536474609374,26.03012353515625,25.900836474609374,25.35292353515625Q24.908636474609374,24.67062353515625,24.487936474609374,24.23222353515625L24.471636474609376,24.21532353515625Q24.275136474609376,24.01062353515625,24.295536474609374,23.72752353515625Q24.457636474609377,21.47802353515625,24.486536474609377,19.120323535156253Q24.487236474609375,19.059823535156248,24.488936474609375,18.92252353515625Q24.500136474609373,17.998723535156252,24.512836474609376,17.62772353515625Q24.781636474609375,18.28222353515625,25.330736474609374,18.98882353515625Q26.601336474609376,20.62362353515625,27.182736474609374,22.08882353515625Z" fill-rule="evenodd" fill="#000000" fill-opacity="1" style="mix-blend-mode:passthrough"/></g><g><path d="M15.574247485351563,30.10605162353516C14.278407485351563,30.019651623535154,14.215427485351562,30.012151623535157,14.213887485351563,29.943851623535156C14.213357485351562,29.919951623535155,14.171637485351562,29.76595162353516,14.121187485351562,29.60155162353516C13.518387485351562,27.637651623535156,13.780807485351563,25.60135162353516,14.975167485351562,22.974611623535157C15.027917485351562,22.858601623535158,15.097767485351563,22.682971623535156,15.130387485351562,22.584331623535157C15.210867485351562,22.340981623535157,15.306197485351563,22.217071623535155,15.276417485351562,22.39453162353516C15.082997485351562,23.546921623535155,15.354277485351563,25.343051623535157,15.919547485351563,26.65250162353516C16.110747485351563,27.095411623535156,16.752747485351563,28.136551623535155,17.423847485351562,29.091751623535156C17.654047485351562,29.419551623535156,18.25034748535156,30.058351623535156,18.32944748535156,30.062051623535154C18.396847485351564,30.065251623535154,18.395547485351564,30.068451623535154,18.31644748535156,30.093751623535155C18.23534748535156,30.11975162353516,15.933947485351563,30.130051623535156,15.574247485351563,30.10605162353516ZM26.840847485351564,26.017351623535156C26.176747485351562,25.673711623535155,24.613747485351563,24.512941623535156,24.326147485351562,24.149871623535155C24.217647485351563,24.012811623535157,24.215947485351563,24.00489162353516,24.23794748535156,23.738461623535155C24.32664748535156,22.667701623535155,24.408547485351562,20.752651623535158,24.431347485351562,19.221311623535158C24.445847485351564,18.239814623535157,24.46814748535156,17.426387423535157,24.480847485351564,17.413699363535155C24.493547485351563,17.401009263535155,24.503947485351564,17.414098783535156,24.503947485351564,17.442875023535155C24.503947485351564,17.608760623535158,25.013047485351564,18.498801623535158,25.365547485351563,18.949221623535156C26.768247485351562,20.741371623535155,27.48214748535156,22.259841623535156,27.737247485351563,23.994141623535157C28.012847485351564,25.867361623535157,27.740147485351564,26.48273162353516,26.840847485351564,26.017351623535156ZM9.097717485351563,25.445271623535156C8.567717485351562,24.750411623535157,7.848227485351563,24.644071623535154,6.547697485351563,25.068371623535157C5.343850985351563,25.461121623535156,5.075875485351562,25.047641623535156,5.643248485351562,23.672831623535156C6.264308485351562,22.167931623535157,6.964237485351562,21.187321623535155,8.525517485351562,19.634771623535155C9.089417485351563,19.074031623535156,9.596297485351563,18.554011623535157,9.651927485351562,18.479191623535158C9.783747485351562,18.301892623535156,9.792317485351562,18.345848623535158,9.707117485351564,18.762271623535156C9.541397485351563,19.572261623535155,9.451457485351563,20.129061623535158,9.350387485351563,20.970711623535156C9.310917485351563,21.299421623535157,9.253527485351562,21.758211623535157,9.222867485351562,21.990241623535155C9.156417485351563,22.493121623535156,9.120357485351562,25.289711623535155,9.178357485351562,25.442251623535157C9.228937485351562,25.575281623535155,9.197767485351562,25.576451623535156,9.097717485351563,25.445271623535156Z" fill="#121211" fill-opacity="1" style="mix-blend-mode:passthrough"/></g><g><ellipse cx="18.484552681446075" cy="10.822382360696793" rx="0.44864875078201294" ry="0.4486488401889801" fill="#161818" fill-opacity="1" style="mix-blend-mode:passthrough"/></g><g transform="matrix(0.9294200539588928,0.3690235912799835,0.44014689326286316,0.8979257941246033,-3.4848561948583665,-5.6191164726606075)"><ellipse cx="18.286934792995453" cy="10.91636698693037" rx="0.06153196096420288" ry="0.07634013146162033" fill="#FCF1E1" fill-opacity="1" style="mix-blend-mode:passthrough"/></g></g></svg>