<svg xmlns="http://www.w3.org/2000/svg" xmlns:xlink="http://www.w3.org/1999/xlink" fill="none" version="1.1" width="186.39999389648438" height="74" viewBox="0 0 186.39999389648438 74"><defs><clipPath id="master_svg0_2_784"><path d="M0 28.78808307647705C1.962109585316772e-15 17.8728969118596 8.848506691217512 9.02439022064209 19.76369285583496 9.02439022064209L45.03630256652832 9.02439022064209C55.95148873114577 9.02439022064209 64.79999542236328 17.872896911859602 64.79999542236328 28.78808307647705L64.79999542236328 54.23630619049072C64.79999542236328 65.15149235510818 55.95148873114577 73.99999904632568 45.03630256652832 73.99999904632568L19.76369285583496 73.99999904632568C8.848506691217512 73.99999904632568 0 65.15149235510818 0 54.23630619049072Z"/></clipPath></defs><g><g clip-path="url(#master_svg0_2_784)"><path d="M0 28.78808307647705C1.962109585316772e-15 17.8728969118596 8.848506691217512 9.02439022064209 19.76369285583496 9.02439022064209L45.03630256652832 9.02439022064209C55.95148873114577 9.02439022064209 64.79999542236328 17.872896911859602 64.79999542236328 28.78808307647705L64.79999542236328 54.23630619049072C64.79999542236328 65.15149235510818 55.95148873114577 73.99999904632568 45.03630256652832 73.99999904632568L19.76369285583496 73.99999904632568C8.848506691217512 73.99999904632568 0 65.15149235510818 0 54.23630619049072Z" fill="#34A5DD" fill-opacity="1"/><g><path d="M0,41.51219022064209C0,23.569690220642087,14.506,9.02439022064209,32.4,9.02439022064209C50.294,9.02439022064209,64.8,23.569690220642087,64.8,41.51219022064209C64.8,59.45469022064209,50.294,73.99999022064209,32.4,73.99999022064209C14.506,73.99999022064209,0,59.45469022064209,0,41.51219022064209" fill="#FCF1E1" fill-opacity="1" style="mix-blend-mode:passthrough"/></g><g><path d="M0,41.51219022064209C0,23.569690220642087,14.506,9.02439022064209,32.4,9.02439022064209C50.294,9.02439022064209,64.8,23.569690220642087,64.8,41.51219022064209C64.8,59.45469022064209,50.294,73.99999022064209,32.4,73.99999022064209C14.506,73.99999022064209,0,59.45469022064209,0,41.51219022064209M35.32,63.30849022064209C39.2876,62.89379022064209,42.0705,61.98489022064209,42.4956,60.96489022064209C42.7861,60.26779022064209,43.2711,55.77809022064209,43.4113,52.48949022064209C43.4462,51.66939022064209,43.535,50.01329022064209,43.6086,48.80929022064209C43.7055,47.22489022064209,43.7557,45.47199022064209,43.7902,42.46399022064209C43.8164,40.17809022064209,43.8683,38.007990220642085,43.9054,37.64159022064209C43.9426,37.27519022064209,44.0043,36.57559022064209,44.0427,36.08699022064209C44.2328,33.66669022064209,44.3761,32.65769022064209,44.9619,29.61479022064209C47.0075,18.98902022064209,46.7393,18.33464022064209,42.3347,23.20609022064209C40.3037,25.45229022064209,39.7203,26.06849022064209,38.1297,27.64779022064209C33.978,31.76959022064209,32.0396,34.34819022064209,31.206,36.85789022064209C29.9677,40.585890220642085,30.3225,43.73149022064209,32.0816,44.62109022064209C33.2927,45.23369022064209,33.9502,46.381090220642086,34.62,49.05159022064209C35.5089,52.59549022064209,35.3706,55.06359022064209,33.8835,62.19609022064209C33.7637,62.77089022064209,33.6656,63.27779022064209,33.6656,63.32229022064209C33.6656,63.43209022064209,34.1776,63.42789022064209,35.32,63.30849022064209ZM26.1518,34.75019022064209C27.7148,34.34409022064209,29.8899,32.395390220642085,30.8266,30.56209022064209C31.1124,30.00279022064209,31.2193,29.62679022064209,31.3845,28.59959022064209C31.4701,28.06739022064209,31.7047,27.55309022064209,31.9603,27.33749022064209C32.2612,27.08359022064209,31.9899,26.87509022064209,31.1578,26.72079022064209C29.5075,26.41489022064209,27.2843,28.47079022064209,25.5958,31.86399022064209C24.4595,34.14759022064209,24.6508,35.14019022064209,26.1518,34.75019022064209Z" fill="#6AC2ED" fill-opacity="1" style="mix-blend-mode:passthrough"/></g><g><path d="M0,41.51219022064209C0,23.569690220642087,14.506,9.02439022064209,32.4,9.02439022064209C50.294,9.02439022064209,64.8,23.569690220642087,64.8,41.51219022064209C64.8,59.45469022064209,50.294,73.99999022064209,32.4,73.99999022064209C14.506,73.99999022064209,0,59.45469022064209,0,41.51219022064209M40.1836,68.22119022064209C55.3977,67.59539022064209,61.731,61.76329022064209,50.3086,58.89749022064209C47.7476,58.25499022064209,44.2969,57.81619022064209,44.2969,58.13309022064209C44.2969,58.29599022064209,44.4956,58.35299022064209,45.7523,58.55069022064209C54.6243,59.94619022064209,57.6811,62.19949022064209,53.9871,64.62079022064209C49.9853,67.2436902206421,37.7069,68.54989022064208,26.4118,67.55409022064208C25.8876,67.50789022064208,25.6922,67.55269022064209,25.6922,67.71869022064209C25.6922,67.89259022064209,25.6961,67.8934902206421,26.9307,67.99909022064209C30.8714,68.3362902206421,35.4997,68.41389022064209,40.1836,68.22119022064209ZM36.9562,66.25509022064209C46.1433,65.79399022064209,51.308,63.82749022064209,49.5168,61.47269022064209C49.0145,60.81239022064209,47.4857,60.02909022064209,46.1694,59.757590220642086C45.2173,59.56129022064209,45.3795,59.77149022064209,46.5117,60.20119022064209C52.9499,62.64429022064209,47.2467,65.4441902206421,34.868,65.91729022064209C33.7306,65.96079022064208,33.4758,66.0032902206421,33.4758,66.14929022064209C33.4758,66.41859022064209,33.6137,66.4227902206421,36.9562,66.25509022064209ZM15.154,66.1727902206421C15.3628,66.01969022064209,15.2205,65.89559022064209,14.6377,65.7223902206421C10.4318,64.47199022064208,8.37128,62.97349022064209,8.9753,61.60429022064209C9.44846,60.53179022064209,10.9393,59.91899022064209,15.4908,58.92609022064209C15.6599,58.88919022064209,15.741,58.72989022064209,15.6415,58.63009022064209C15.5402,58.52859022064209,14.1659,58.73379022064209,12.9727,59.02849022064209C6.19244,60.70339022064209,6.72265,64.04729022064208,14.0801,66.01289022064209C15.1392,66.2958902206421,15.012,66.27689022064209,15.154,66.1727902206421ZM23.5577,65.6717902206421C23.6455,65.4192902206421,23.5853,65.40079022064208,21.4472,65.0254902206421C15.273,63.94179022064209,12.7427,62.44319022064209,14.289,60.78599022064209C14.4705,60.59139022064209,14.442,60.56759022064209,14.1877,60.70119022064209C13.4767,61.07469022064209,13.1199,61.93419022064209,13.4188,62.55329022064209C13.9212,63.59399022064209,16.8107,64.71159022064208,20.613,65.33599022064209C21.3705,65.4603902206421,22.218,65.6015902206421,22.4965,65.6496902206421C23.1599,65.76449022064209,23.5228,65.7720902206421,23.5577,65.6717902206421ZM35.2793,63.43739022064209C39.7736,62.97869022064209,42.427,61.99629022064209,42.706,60.68759022064209C43.034,59.14889022064209,43.6202,53.16749022064209,43.5051,52.533490220642086C43.4849,52.42209022064209,43.5447,51.07449022064209,43.638,49.53899022064209C43.7689,47.38449022064209,43.8182,45.89229022064209,43.8536,43.00329022064209C43.8996,39.25259022064209,43.9307,38.62159022064209,44.2361,35.262090220642094C44.4242,33.19349022064209,44.5046,32.65029022064209,45.0254,29.93209022064209C47.1902,18.63324022064209,46.8951,18.01781022064209,41.9522,23.523390220642092C41.1375,24.43069022064209,39.4734,26.18679022064209,38.254,27.42569022064209C32.9202,32.84519022064209,31.4127,35.03639022064209,30.7019,38.40299022064209C30.0332,41.57049022064209,30.5237,43.92869022064209,32.0026,44.65949022064209C32.007,44.66169022064209,32.0106,44.66339022064209,32.0151,44.66559022064209C33.2984,45.29779022064209,34.0254,46.66009022064209,34.7012,49.69759022064209C35.4024,52.84919022064209,35.2541,55.02149022064209,33.8665,61.92679022064209C33.6966,62.77239022064209,33.5724,63.47909022064209,33.5905,63.49729022064209C33.6488,63.55579022064209,34.3699,63.53019022064209,35.2793,63.43739022064209ZM26.4355,34.729290220642085C28.4599,34.02269022064209,30.9996,31.26209022064209,31.3158,29.424490220642088C31.3518,29.21509022064209,31.4137,28.85809022064209,31.4534,28.63129022064209C31.5526,28.06389022064209,31.7299,27.67829022064209,32.0242,27.39009022064209C32.3385,27.08239022064209,32.339,27.08529022064209,31.9412,26.89669022064209C30.1772,26.060190220642088,28.4075,27.16769022064209,26.3407,30.40159022064209C24.269,33.643090220642094,24.3091,35.47149022064209,26.4355,34.729290220642085Z" fill="#34A5DD" fill-opacity="1" style="mix-blend-mode:passthrough"/></g><g><path d="M27.780548706054688,63.42208201751709C23.107048706054687,63.13568201751709,20.064348706054687,62.63558201751709,18.715928706054687,61.93208201751709C17.41640870605469,61.25418201751709,17.281398706054688,60.91208201751709,16.811798706054688,57.10698201751709L16.65606870605469,55.84518201751709C16.620858706054687,55.55978201751709,16.517558706054686,55.28718201751709,16.354928706054686,55.05048201751709C15.496928706054687,53.80128201751709,14.143018706054686,53.57868201751709,11.874868706054688,54.31388201751709C9.535005706054687,55.07238201751709,9.019207706054688,54.24318201751709,10.162003706054687,51.56038201751709C11.343658706054688,48.78638201751709,12.526988706054688,47.15708201751709,15.570208706054688,44.11378201751709C17.60453870605469,42.07938201751709,17.751598706054686,41.888282017517085,17.90418870605469,41.080082017517086C19.170128706054687,34.37518201751709,24.368448706054686,25.42647201751709,29.299248706054687,21.46392201751709C32.18764870605469,19.14269201751709,34.630648706054686,18.28554701751709,38.44334870605469,18.25556101751709C40.05324870605469,18.24289901751709,40.25574870605469,18.22915701751709,40.65824870605469,18.10522501751709C43.028748706054685,17.37528401751709,44.91384870605469,17.89414601751709,45.71334870605469,19.49660201751709C45.99904870605469,20.06919201751709,46.00064870605469,20.12863201751709,45.73084870605469,20.12863201751709C45.15384870605469,20.12863201751709,44.36964870605469,20.75917201751709,42.82674870605469,22.463922017517092C40.40464870605469,25.13992201751709,39.78054870605469,25.80605201751709,38.38594870605469,27.203612017517088C32.01564870605469,33.587182017517094,30.372048706054688,36.41408201751709,30.375848706054686,40.98098201751709C30.377548706054686,43.10498201751709,30.828548706054686,44.13978201751709,32.01964870605469,44.75298201751709C33.20304870605469,45.36228201751709,33.85274870605468,46.503482017517086,34.485948706054685,49.08538201751709C35.368248706054686,52.68288201751709,35.23644870605469,54.93168201751709,33.70794870605469,62.35648201751709L33.55624870605469,63.09308201751709C33.52174870605469,63.26048201751709,33.38694870605469,63.38878201751709,33.21844870605469,63.41458201751709C32.94084870605469,63.45698201751709,28.451748706054687,63.46318201751709,27.780548706054688,63.42208201751709ZM26.266048706054686,34.87518201751709C28.602948706054686,34.18598201751709,31.114948706054687,31.29978201751709,31.479448706054686,28.885082017517092C31.596148706054688,28.11158201751709,31.79704870605469,27.64183201751709,32.12794870605469,27.36834201751709C32.79784870605469,26.81465201751709,30.985648706054686,26.30228201751709,29.856148706054686,26.72602201751709C27.940048706054686,27.444882017517088,24.881648706054687,31.812082017517092,24.756948706054686,34.00738201751709L24.74524870605469,34.21358201751709C24.733848706054687,34.41448201751709,24.808448706054687,34.61068201751709,24.950348706054687,34.75298201751709C25.212548706054687,35.015882017517086,25.65084870605469,35.05668201751709,26.266048706054686,34.87518201751709ZM48.90084870605469,56.28608201751709C48.134948706054686,56.12208201751709,44.982948706054685,53.94838201751709,43.957248706054685,52.876982017517086L43.92804870605469,52.84648201751709C43.670048706054686,52.57688201751709,43.537948706054685,52.21028201751709,43.56474870605469,51.83758201751709C43.76774870605469,49.01278201751709,43.871848706054685,46.49338201751709,43.908048706054686,43.53208201751709C43.95344870605469,39.811682017517086,43.94214870605469,39.91368201751709,44.22814870605469,40.650982017517094C44.54894870605469,41.47788201751709,45.02974870605469,42.293082017517094,45.72774870605469,43.19368201751709C48.79644870605469,47.15298201751709,50.13774870605469,50.54198201751709,50.14764870605469,54.36138201751709C50.15174870605469,55.97108201751709,49.82014870605469,56.48298201751709,48.90084870605469,56.28608201751709Z" fill="#191A1A" fill-opacity="1" style="mix-blend-mode:passthrough"/><path d="M30.647348706054686,63.61698201751709Q33.023148706054684,63.61368201751709,33.24374870605469,63.57998201751709Q33.63934870605469,63.51948201751709,33.72004870605468,63.12748201751709L33.87174870605469,62.39018201751709Q35.020648706054686,56.80958201751709,35.16804870605469,54.29548201751709Q35.31624870605469,51.76818201751709,34.64844870605469,49.04548201751709Q34.16804870605469,47.086482017517085,33.604548706054686,46.09668201751709Q33.02794870605469,45.08388201751709,32.09624870605469,44.60428201751709Q31.25594870605469,44.17158201751709,30.90514870605469,43.36668201751709Q30.544448706054688,42.538982017517085,30.543248706054687,40.98088201751709Q30.540448706054686,37.600882017517094,32.13524870605469,34.85768201751709Q33.74184870605468,32.09438201751709,38.504348706054685,27.32181201751709Q40.130448706054686,25.69231201751709,42.95074870605469,22.57621201751709Q45.01454870605469,20.29596201751709,45.73084870605469,20.29596201751709Q45.87514870605469,20.29596201751709,45.948948706054686,20.26381201751709Q46.10254870605469,20.19691201751709,46.097648706054684,20.02271201751709Q46.093848706054686,19.88445201751709,45.863048706054684,19.42190201751709Q45.230148706054685,18.15323501751709,43.81934870605469,17.76492921751709Q42.43344870605469,17.383488017517088,40.60894870605469,17.94529901751709Q40.18944870605469,18.07448701751709,38.44204870605469,18.08823001751709Q35.55474870605469,18.11093901751709,33.46934870605469,18.84263201751709Q31.383148706054687,19.57459201751709,29.194448706054686,21.333492017517088Q25.47214870605469,24.32481201751709,22.082748706054687,30.15958201751709Q18.694558706054686,35.99208201751709,17.739758706054687,41.04898201751709Q17.632728706054685,41.615882017517094,17.310228706054687,42.03508201751709Q16.969958706054687,42.47738201751709,15.451888706054689,43.99548201751709Q13.160158706054688,46.28718201751709,12.032618706054688,47.83968201751709Q10.901728706054687,49.396882017517086,10.008053706054687,51.49478201751709Q9.116846706054687,53.58698201751709,9.570352066054687,54.315982017517086Q10.047031706054687,55.08228201751709,11.926468706054688,54.47308201751709Q13.588948706054687,53.93418201751709,14.616558706054686,54.10318201751709Q15.613888706054688,54.26708201751709,16.21699870605469,55.14518201751709Q16.441408706054688,55.47188201751709,16.489948706054687,55.86528201751709L16.645718706054687,57.12748201751709Q17.000528706054688,60.00238201751709,17.296988706054687,60.75368201751709Q17.490508706054687,61.24408201751709,17.822808706054687,61.55028201751709Q18.084308706054685,61.79138201751709,18.638528706054686,62.08048201751709Q20.699948706054688,63.15588201751709,27.770248706054687,63.58908201751709Q28.279248706054688,63.62028201751709,30.647348706054686,63.61698201751709ZM33.39224870605469,63.05998201751709Q33.35844870605469,63.22388201751709,33.193148706054686,63.24918201751709Q32.99754870605469,63.27908201751709,30.646848706054687,63.28228201751709Q28.28934870605469,63.28558201751709,27.79074870605469,63.25498201751709Q20.791548706054687,62.82618201751709,18.793318706054688,61.78378201751709Q18.27846870605469,61.51518201751709,18.049618706054687,61.30428201751709Q17.773688706054685,61.04988201751709,17.60829870605469,60.63078201751709Q17.32745870605469,59.91918201751709,16.977868706054686,57.08648201751709L16.82209870605469,55.82428201751709Q16.76354870605469,55.34978201751709,16.492858706054687,54.95568201751709Q15.808978706054688,53.96008201751709,14.670848706054688,53.77288201751709Q13.563058706054687,53.59078201751709,11.823268706054687,54.15478201751709Q10.192906706054687,54.68318201751709,9.854526706054688,54.13928201751709Q9.492960406054687,53.55798201751709,10.315953706054687,51.62598201751709Q11.194788706054688,49.56288201751709,12.303408706054688,48.03638201751709Q13.415458706054688,46.505182017517086,15.688538706054688,44.23208201751709Q17.221958706054686,42.698682017517086,17.57547870605469,42.239182017517095Q17.946758706054688,41.75658201751709,18.068618706054686,41.11108201751709Q19.01277870605469,36.11058201751709,22.372048706054688,30.32768201751709Q25.730248706054688,24.54673201751709,29.404048706054688,21.59436201751709Q31.548048706054686,19.87140201751709,33.580148706054686,19.15842201751709Q35.61294870605469,18.44516201751709,38.44474870605469,18.422891017517088Q40.241048706054684,18.40876301751709,40.70744870605469,18.26515001751709Q42.43874870605469,17.73204991751709,43.73054870605469,18.08760001751709Q44.99734870605469,18.43627701751709,45.563648706054686,19.57131201751709Q45.700648706054686,19.84604201751709,45.743648706054685,19.96125201751709L45.73084870605469,19.96129201751709Q45.239148706054685,19.96129201751709,44.53614870605469,20.52659201751709Q43.86874870605469,21.06329201751709,42.70264870605469,22.35163201751709Q39.88774870605469,25.46167201751709,38.26744870605469,27.08541201751709Q33.474348706054684,31.88868201751709,31.84594870605469,34.68948201751709Q30.20564870605469,37.51078201751709,30.20854870605469,40.981182017517085Q30.209848706054686,42.60888201751709,30.598348706054686,43.50038201751709Q30.99674870605469,44.41458201751709,31.943048706054686,44.90178201751709Q32.78634870605469,45.33598201751709,33.31364870605469,46.262282017517094Q33.854048706054684,47.211482017517085,34.32344870605469,49.12518201751709Q34.97914870605469,51.79888201751709,34.833948706054684,54.27588201751709Q34.68804870605469,56.76578201751709,33.54404870605469,62.32268201751709L33.39224870605469,63.05998201751709ZM24.578148706054687,34.20458201751709Q24.555948706054686,34.594482017517095,24.831848706054686,34.87108201751709Q25.29534870605469,35.33598201751709,26.313448706054686,35.03568201751709Q28.112948706054688,34.504982017517094,29.738648706054686,32.63708201751709Q31.36424870605469,30.769282017517092,31.644848706054688,28.91008201751709Q31.80444870605469,27.85278201751709,32.23454870605469,27.497322017517092Q32.59964870605469,27.19556201751709,32.34614870605469,26.871682017517088Q32.172548706054684,26.64973201751709,31.712348706054687,26.51962201751709Q30.695948706054686,26.23225201751709,29.797448706054688,26.56935201751709Q28.311748706054686,27.12671201751709,26.497748706054686,29.71708201751709Q24.686148706054688,32.30388201751709,24.58984870605469,33.997882017517085L24.578148706054687,34.20458201751709ZM26.218748706054686,34.71468201751709Q25.39174870605469,34.95858201751709,25.068748706054688,34.63478201751709Q24.898648706054686,34.46418201751709,24.912248706054687,34.223482017517085L24.924048706054688,34.01688201751709Q25.014848706054686,32.41788201751709,26.771848706054687,29.90898201751709Q28.526448706054687,27.40362201751709,29.914948706054687,26.88270201751709Q30.710648706054688,26.58419201751709,31.621248706054686,26.84167201751709Q31.976248706054687,26.94204201751709,32.082648706054684,27.07792201751709Q32.13524870605469,27.14518201751709,32.02124870605469,27.239352017517092Q31.492648706054688,27.676322017517087,31.31394870605469,28.86008201751709Q31.047848706054687,30.62298201751709,29.48614870605469,32.41738201751709Q27.924548706054686,34.21158201751709,26.218748706054686,34.71468201751709ZM50.010948706054684,56.09218201751709Q50.31824870605469,55.61788201751709,50.314948706054686,54.36098201751709Q50.307448706054686,51.46478201751709,49.24034870605469,48.76848201751709Q48.17614870605469,46.079482017517094,45.860048706054684,43.091182017517085Q44.84754870605469,41.784982017517095,44.38414870605469,40.590382017517086Q44.37474870605469,40.56618201751709,44.356848706054684,40.51978201751709Q44.237048706054686,40.20898201751709,44.181348706054685,40.14618201751709Q44.11144870605469,40.06738201751709,44.01604870605469,40.07618201751709Q43.91224870605469,40.08578201751709,43.86104870605469,40.18718201751709Q43.82814870605469,40.25228201751709,43.81154870605469,40.40138201751709Q43.774648706054684,40.733782017517086,43.74504870605469,43.17318201751709Q43.742148706054685,43.41438201751709,43.74074870605469,43.53008201751709Q43.68894870605469,47.77558201751709,43.39784870605469,51.82558201751709Q43.350448706054685,52.48508201751709,43.807648706054685,52.96268201751709L43.836348706054686,52.99268201751709Q44.61744870605469,53.80868201751709,46.43144870605469,55.05958201751709Q48.258848706054685,56.31978201751709,48.865848706054685,56.44968201751709Q49.66804870605469,56.62148201751709,50.010948706054684,56.09218201751709ZM48.92914870605469,48.891582017517095Q49.97294870605469,51.52898201751709,49.98024870605469,54.36178201751709Q49.98324870605469,55.51938201751709,49.730148706054685,55.91018201751709Q49.51264870605469,56.24598201751709,48.93594870605469,56.12248201751709Q48.39404870605469,56.00648201751709,46.621448706054686,54.78408201751709Q44.835648706054684,53.55258201751709,44.07814870605469,52.76128201751709L44.04944870605469,52.73128201751709Q43.69494870605469,52.36098201751709,43.731648706054685,51.84958201751709Q44.02344870605469,47.78978201751709,44.07534870605469,43.53418201751709L44.07974870605469,43.17718201751709Q44.09994870605469,41.50808201751709,44.122948706054686,40.83878201751709Q44.60654870605469,42.02028201751709,45.59544870605469,43.29618201751709Q47.88244870605469,46.24678201751709,48.92914870605469,48.891582017517095Z" fill-rule="evenodd" fill="#000000" fill-opacity="1" style="mix-blend-mode:passthrough"/></g><g><path d="M28.03358547363281,63.3621428817749C25.701085473632812,63.2062428817749,25.587785473632813,63.1926428817749,25.584985473632813,63.0693428817749C25.58408547363281,63.026242881774905,25.508985473632812,62.7482428817749,25.418085473632814,62.4516428817749C24.333085473632813,58.9070428817749,24.805485473632814,55.231742881774906,26.955285473632813,50.490742881774906C27.05028547363281,50.2813728817749,27.175985473632814,49.9643928817749,27.234685473632812,49.786362881774906C27.37958547363281,49.347132881774904,27.551185473632813,49.123482881774905,27.497585473632814,49.443792881774904C27.14938547363281,51.5237428817749,27.637685473632814,54.765542881774905,28.655085473632813,57.128942881774904C28.999285473632813,57.9283428817749,30.154985473632813,59.8073428817749,31.36288547363281,61.531542881774904C31.777385473632812,62.12304288177491,32.85058547363281,63.2761428817749,32.992985473632814,63.2828428817749C33.11428547363281,63.2885428817749,33.111985473632814,63.294242881774906,32.96958547363281,63.3399428817749C32.82358547363281,63.3868428817749,28.681185473632812,63.4054428817749,28.03358547363281,63.3621428817749ZM48.31348547363281,55.982542881774904C47.11818547363281,55.3623428817749,44.304685473632816,53.267242881774905,43.787085473632814,52.6119428817749C43.59178547363281,52.3645428817749,43.588685473632815,52.3502428817749,43.62838547363281,51.8694428817749C43.787985473632816,49.9368228817749,43.93548547363281,46.4803828817749,43.97638547363281,43.7165228817749C44.00258547363281,41.9450328817749,44.042685473632815,40.4768928817749,44.065585473632815,40.4539924717749C44.08838547363281,40.431088381774906,44.107085473632814,40.4547133717749,44.107085473632814,40.506650981774904C44.107085473632814,40.806054881774905,45.02348547363281,42.4124628817749,45.65808547363281,43.225422881774904C48.182885473632815,46.4600328817749,49.467785473632816,49.2006828817749,49.927085473632815,52.3309428817749C50.42308547363281,55.7118428817749,49.93228547363281,56.82254288177491,48.31348547363281,55.982542881774904ZM16.375885473632813,54.950042881774905C15.421895473632812,53.6958428817749,14.126815473632814,53.503942881774904,11.785855473632813,54.2697428817749C9.618931773632813,54.9786428817749,9.136576473632813,54.232342881774905,10.157847473632813,51.750942881774904C11.275755473632813,49.0348028817749,12.535635473632812,47.2649228817749,15.345935473632814,44.462752881774904C16.36094547363281,43.4506828817749,17.273335473632812,42.5121228817749,17.373475473632812,42.3770728817749C17.61074547363281,42.0570728817749,17.626165473632813,42.1364128817749,17.472815473632814,42.8880028817749C17.174515473632813,44.349932881774905,17.012625473632813,45.3548928817749,16.83069547363281,46.8739628817749C16.759645473632812,47.4672428817749,16.656355473632814,48.2953028817749,16.60116547363281,48.7140928817749C16.481555473632813,49.6217228817749,16.416645473632812,54.669242881774906,16.521035473632814,54.9445428817749C16.612075473632814,55.184642881774906,16.555985473632813,55.186742881774904,16.375885473632813,54.950042881774905Z" fill="#121211" fill-opacity="1" style="mix-blend-mode:passthrough"/></g><g><ellipse cx="33.27219778299332" cy="28.557466626167297" rx="0.8075676560401917" ry="0.8097563982009888" fill="#161818" fill-opacity="1" style="mix-blend-mode:passthrough"/></g><g transform="matrix(0.9290767312049866,0.36988699436187744,0.4391869604587555,0.8983956575393677,-10.229365698184523,-9.229612363253977)"><ellipse cx="32.91652354598045" cy="28.72702892124653" rx="0.11079844832420349" ry="0.13771255314350128" fill="#FCF1E1" fill-opacity="1" style="mix-blend-mode:passthrough"/></g></g><g><path d="M97.22999389648437,17.5Q100.37999389648438,20.065,101.90999389648438,24.385Q103.43999389648437,28.705,103.43999389648437,33.2725Q103.43999389648437,37.84,101.95499389648438,41.935Q100.46999389648437,46.03,97.22999389648437,49L87.95999389648438,49Q84.71999389648437,46.03,83.23499389648437,41.935Q81.74999389648437,37.84,81.74999389648437,33.2725Q81.74999389648437,28.705,83.27999389648437,24.385Q84.80999389648437,20.065,87.95999389648438,17.5L97.22999389648437,17.5ZM90.97499389648438,43.78L94.21499389648437,43.78Q95.33999389648437,42.475,96.12749389648437,39.5275Q96.91499389648438,36.58,96.91499389648438,33.295Q96.91499389648438,30.01,96.14999389648438,27.1075Q95.38499389648437,24.205,94.25999389648437,22.9L90.97499389648438,22.9Q89.84999389648438,24.205,89.06249389648437,27.1075Q88.27499389648438,30.01,88.27499389648438,33.295Q88.27499389648438,36.58,89.06249389648437,39.5275Q89.84999389648438,42.475,90.97499389648438,43.78ZM106.76999389648438,49L106.76999389648438,26.005L111.04499389648437,26.005L112.16999389648437,28.435Q113.96999389648437,26.005,116.71499389648437,26.005L118.46999389648437,26.005L118.46999389648437,32.035L112.75499389648436,32.035L112.75499389648436,49L106.76999389648438,49ZM125.75999389648437,37.3Q125.75999389648437,39.19,126.34499389648437,41.1475Q126.92999389648438,43.105,127.96499389648437,44.275L134.71499389648437,44.275L134.71499389648437,49L124.85999389648438,49Q119.54999389648438,44.77,119.54999389648438,37.3Q119.54999389648438,29.83,125.21999389648437,26.005L134.71499389648437,26.005L134.71499389648437,30.73L127.96499389648437,30.73Q125.75999389648437,33.025,125.75999389648437,37.3ZM148.34999389648436,38.605L143.53499389648437,38.605Q142.58999389648437,39.775,142.58999389648437,41.53Q142.58999389648437,43.285,143.57999389648438,44.275L148.34999389648436,44.275L148.34999389648436,38.605ZM138.67499389648438,26.005L149.83499389648438,26.005Q152.53499389648437,27.625,153.38999389648438,29.7175Q154.24499389648437,31.81,154.24499389648437,35.41L154.24499389648437,42.16Q154.24499389648437,45.895,154.42499389648438,49L149.29499389648436,49L148.48499389648435,47.38Q146.72999389648436,49,143.53499389648437,49L140.6999938964844,49Q136.87499389648437,46.48,136.87499389648437,41.7325Q136.87499389648437,36.985,140.78999389648436,34.24L145.01999389648438,34.24Q146.77499389648438,34.24,148.30499389648438,35.32L148.30499389648438,33.07Q148.30499389648438,31.315,146.77499389648438,30.73L138.67499389648438,30.73L138.67499389648438,26.005ZM158.65499389648437,42.925L163.6949938964844,42.925L163.6949938964844,49L158.65499389648437,49L158.65499389648437,42.925ZM164.36999389648437,17.5L163.6949938964844,31.9L163.6949938964844,38.155L158.65499389648437,38.155L158.65499389648437,31.9L157.97999389648436,17.5L164.36999389648437,17.5ZM168.64499389648438,42.925L173.68499389648437,42.925L173.68499389648437,49L168.64499389648438,49L168.64499389648438,42.925ZM174.35999389648435,17.5L173.68499389648437,31.9L173.68499389648437,38.155L168.64499389648438,38.155L168.64499389648438,31.9L167.96999389648437,17.5L174.35999389648435,17.5ZM178.6349938964844,42.925L183.67499389648438,42.925L183.67499389648438,49L178.6349938964844,49L178.6349938964844,42.925ZM184.34999389648436,17.5L183.67499389648438,31.9L183.67499389648438,38.155L178.6349938964844,38.155L178.6349938964844,31.9L177.95999389648438,17.5L184.34999389648436,17.5Z" fill="#445564" fill-opacity="1"/></g><g style="opacity:0.30000001192092896;"><path d="M87.64,56.26C88.37,57.64,89.46,59.15,90.41,60.2C90.69,59.8,91.25,59.22,91.64,58.92C90.73,58.07,89.65,56.77,89.11,55.67L87.64,56.26ZM84.82,55.64C84.33,56.98,83.41,58.32,82.4,59.09C82.8,59.33,83.51,59.87,83.82,60.18C84.82,59.24,85.87,57.68,86.5,56.11L84.82,55.64ZM87.86,61.33C88.18,61.78,88.52,62.3,88.84,62.82C87.87,62.87,86.89,62.92,85.97,62.96C86.55,61.95,87.17,60.72,87.66,59.54L85.91,59.12C85.55,60.36,84.92,61.87,84.29,63.03C83.78,63.06,83.3,63.07,82.88,63.09L83.07,64.63C84.83,64.53,87.28,64.39,89.63,64.22C89.78,64.5,89.9,64.77,89.99,65L91.51,64.2C91.03999999999999,63.21,90.14,61.78,89.28,60.68L87.86,61.33ZM100.38,62.05C100.05,61.61,99.44,61.04,98.84,60.58C98.91,60.2,98.97,59.81,99.02,59.41L97.6,59.26C98.71000000000001,58.6,99.69,57.76,100.26,56.94C101.03999999999999,58.05,102.69,59.24,104.2,59.9C104.47,59.43,104.81,58.88,105.19,58.47C103.56,57.99,102.1,56.99,101.03,55.46L99.37,55.46C98.66,56.59,97.16,57.94,95.44,58.6C95.76,58.93,96.17,59.53,96.35,59.91C96.72,59.74,97.09,59.56,97.45,59.35C97.25,61.37,96.7,63.07,95.53,64C95.89,64.2,96.59,64.7,96.85,64.96000000000001C97.55,64.28,98.07,63.34,98.44,62.21C98.78999999999999,62.57,99.11,62.94,99.3,63.230000000000004L100.38,62.05ZM101.17,59.230000000000004C100.94,61.34,100.28999999999999,63.05,98.95,63.97C99.32,64.19,100.01,64.69,100.28,64.95C100.94,64.38,101.47,63.62,101.87,62.69C102.36,63.59,103.06,64.44,103.97,64.93C104.2,64.5,104.7,63.84,105.03999999999999,63.519999999999996C103.73,63.01,102.9,61.78,102.5,60.72C102.59,60.3,102.67,59.87,102.73,59.41L101.17,59.230000000000004ZM115.45,57.81L111.72,57.81L111.72,57.019999999999996L115.45,57.019999999999996L115.45,57.81ZM116.97,55.76L110.3,55.76L110.3,59.06L116.97,59.06L116.97,55.76ZM118.08,60.75L118.08,59.44L109.07,59.44L109.07,60.75L110.82,60.75C110.6,61.45,110.34,62.17,110.13,62.68L111.72,62.91C111.77,62.78,111.82,62.63,111.88,62.47L115.28999999999999,62.47C115.18,63.05,115.05,63.39,114.89,63.51C114.75,63.6,114.61,63.61,114.39,63.61C114.08,63.61,113.33,63.6,112.68,63.54C112.96000000000001,63.93,113.17,64.51,113.19,64.93C113.88,64.95,114.53999999999999,64.95,114.94,64.92C115.46000000000001,64.88,115.83,64.78999999999999,116.17,64.47C116.53999999999999,64.12,116.77000000000001,63.32,116.95,61.75C116.99000000000001,61.56,117.02000000000001,61.16,117.02000000000001,61.16L112.31,61.16L112.44,60.75L118.08,60.75ZM128.41,58.39C128.04,59.36,127.53999999999999,60.19,126.92,60.89C126.25,60.16,125.72999999999999,59.32,125.35,58.39L128.41,58.39ZM131.54,58.39L131.54,56.97L127.65,56.97L127.65,55.45L126.15,55.45L126.15,56.97L122.31,56.97L122.31,58.39L123.72,58.39C124.25,59.78,124.89,60.980000000000004,125.72,61.97C124.72999999999999,62.69,123.52000000000001,63.21,122.09,63.57C122.38,63.92,122.84,64.62,123.00999999999999,64.99C124.49000000000001,64.53999999999999,125.75999999999999,63.91,126.83,63.07C127.86,63.92,129.13,64.55,130.71,64.96000000000001C130.93,64.53999999999999,131.41,63.84,131.76,63.5C130.29,63.18,129.06,62.64,128.07,61.91C128.93,60.94,129.62,59.78,130.13,58.39L131.54,58.39ZM141.35,57.15C141.3,57.33,141.23,57.519999999999996,141.17000000000002,57.69L139.27,57.69C139.23,57.519999999999996,139.15,57.33,139.07,57.15L141.35,57.15ZM144.72,57.69L142.7,57.69C142.78,57.53,142.87,57.36,142.97,57.15L144.17000000000002,57.15L144.17000000000002,56.03L140.94,56.03L140.94,55.45L139.4,55.45L139.4,56.03L136.29,56.03L136.29,57.15L137.73,57.15L137.54,57.18C137.61,57.33,137.68,57.51,137.73,57.69L135.67000000000002,57.69L135.67000000000002,58.82L144.72,58.82L144.72,57.69ZM138.06,61.3L142.28,61.3L142.28,61.63L138.06,61.63L138.06,61.3ZM138.06,60.09L142.28,60.09L142.28,60.42L138.06,60.42L138.06,60.09ZM144.81,62.89L140.94,62.89L140.94,62.57L143.77,62.57L143.77,59.15L136.64,59.15L136.64,62.57L139.4,62.57L139.4,62.89L135.62,62.89L135.62,64.03L139.4,64.03L139.4,64.95L140.94,64.95L140.94,64.03L144.81,64.03L144.81,62.89ZM150.86,60.6C151.41,59.81,151.93,58.93,152.32999999999998,58.08L151.23000000000002,57.41C151.09,57.769999999999996,150.92000000000002,58.13,150.75,58.47L150.26,58.5C150.75,57.71,151.23000000000002,56.75,151.54000000000002,55.85L150.2,55.39C149.94,56.55,149.39,57.79,149.2,58.1C149.01,58.42,148.86,58.63,148.65,58.69C148.8,59.03,149.01,59.66,149.07999999999998,59.92C149.23000000000002,59.85,149.45,59.78,150.07,59.71C149.82999999999998,60.11,149.62,60.41,149.5,60.55C149.20999999999998,60.93,149.01,61.15,148.75,61.21C148.89,61.54,149.1,62.14,149.16,62.38C149.41,62.22,149.82,62.07,151.93,61.55C151.88,61.269999999999996,151.84,60.75,151.85,60.39L150.86,60.6ZM156.70999999999998,63.84L156.70999999999998,62.769999999999996L156.95,62.769999999999996L156.95,63.75C156.95,63.82,156.93,63.84,156.88,63.84L156.70999999999998,63.84ZM155.63,61.69L155.63,60.84L155.86,60.84L155.86,61.69L155.63,61.69ZM154.51999999999998,61.69L154.51999999999998,60.84L154.78,60.84L154.78,61.69L154.51999999999998,61.69ZM156.95,60.84L156.95,61.69L156.70999999999998,61.69L156.70999999999998,60.84L156.95,60.84ZM156.49,57.59L156.49,58.1L153.76999999999998,58.1L153.76999999999998,57.59L156.49,57.59ZM158.01,59.7L153.74,59.7C153.75,59.55,153.76,59.4,153.76,59.26L157.82,59.26L157.82,56.43L156.16,56.43C156.05,56.1,155.89,55.68,155.74,55.36L154.32,55.75C154.4,55.95,154.49,56.2,154.57,56.43L152.45999999999998,56.43L152.45999999999998,58.61C152.45999999999998,59.82,152.41,61.480000000000004,151.91,62.89L151.69,62C150.6,62.47,149.45,62.95,148.7,63.21L149.03,64.52C149.86,64.13,150.85,63.67,151.79000000000002,63.21C151.67000000000002,63.49,151.53,63.769999999999996,151.37,64.02C151.66,64.16,152.24,64.59,152.45999999999998,64.83C152.94,64.1,153.24,63.19,153.44,62.24L153.44,64.85L154.51999999999998,64.85L154.51999999999998,62.769999999999996L154.78,62.769999999999996L154.78,64.67L155.63,64.67L155.63,62.769999999999996L155.86,62.769999999999996L155.86,64.65L156.70999999999998,64.65L156.70999999999998,64.03C156.81,64.28999999999999,156.89,64.61,156.91,64.85C157.23000000000002,64.85,157.49,64.83,157.73000000000002,64.66C157.97,64.48,158.01,64.19,158.01,63.769999999999996L158.01,59.7ZM169.44,57.13L167.66,57.13L167.66,56.73L169.44,56.73L169.44,57.13ZM170.85,55.73L166.34,55.73L166.34,58.13L170.85,58.13L170.85,55.73ZM163.66,59.56C163.78,59.28,163.9,58.97,164.01,58.66L164.01,59.56L163.66,59.56ZM165.98000000000002,62.79L165.91,61.55L165.32999999999998,61.63L165.32999999999998,60.86L165.78,60.86L165.78,59.56L165.32999999999998,59.56L165.32999999999998,58.22L164.16,58.22L164.29000000000002,57.85L165.95999999999998,57.85L165.95999999999998,56.48L164.68,56.48C164.74,56.22,164.8,55.95,164.85,55.69L163.45999999999998,55.44C163.42000000000002,55.78,163.36,56.14,163.29000000000002,56.48L162.13,56.48L162.13,57.85L162.97,57.85C162.82,58.41,162.68,58.84,162.6,59.03C162.42000000000002,59.47,162.28,59.730000000000004,162.05,59.8C162.2,60.14,162.41,60.769999999999996,162.48000000000002,61.019999999999996C162.57,60.92,162.97,60.86,163.26999999999998,60.86L164.01,60.86L164.01,61.81C163.25,61.91,162.56,61.99,162.01,62.05L162.29000000000002,63.44C162.81,63.35,163.4,63.25,164.01,63.15L164.01,64.93L165.32999999999998,64.93L165.32999999999998,62.91L165.98000000000002,62.79ZM167.7,62.31L169.39,62.31L169.39,62.65C168.81,62.69,168.24,62.74,167.7,62.769999999999996L167.7,62.31ZM169.39,59.6L169.39,59.980000000000004L167.7,59.980000000000004L167.7,59.6L169.39,59.6ZM167.7,60.97L169.39,60.97L169.39,61.32L167.7,61.32L167.7,60.97ZM171.49,62.480000000000004L170.73000000000002,62.54L170.73000000000002,59.6L171.38,59.6L171.38,58.44L165.88,58.44L165.88,59.6L166.37,59.6L166.37,62.86L165.73000000000002,62.9L165.94,64.16C166.9,64.08,168.12,63.97,169.39,63.86L169.39,64.94L170.73000000000002,64.94L170.73000000000002,63.730000000000004L171.49,63.66L171.49,62.480000000000004ZM181.67000000000002,63.5L181.67000000000002,62.69L182.51999999999998,62.69L182.51999999999998,63.5L181.67000000000002,63.5ZM178.4,63.5L177.55,63.5L177.55,62.69L178.4,62.69L178.4,63.5ZM178.28,57.69L177.43,57.69L177.43,56.93L178.28,56.93L178.28,57.69ZM181.82,56.93L182.67000000000002,56.93L182.67000000000002,57.69L181.82,57.69L181.82,56.93ZM184.70999999999998,60.51L184.70999999999998,59.25L180.45999999999998,59.25C180.55,59.11,180.62,58.96,180.7,58.81L184.06,58.81L184.06,55.81L180.51,55.81L180.51,58.71L179.67000000000002,58.42L179.67000000000002,55.81L176.12,55.81L176.12,58.81L179.03,58.81C178.93,58.96,178.82999999999998,59.11,178.72,59.25L175.51999999999998,59.25L175.51999999999998,60.51L177.36,60.51C176.70999999999998,60.96,175.95999999999998,61.32,175.13,61.58C175.41,61.83,175.82,62.39,175.99,62.71C176.09,62.67,176.2,62.63,176.3,62.6L176.3,64.97L177.55,64.97L177.55,64.68L178.4,64.68L178.4,64.97L179.72,64.97L179.72,61.51L178.37,61.51C178.79000000000002,61.21,179.18,60.88,179.53,60.51L180.7,60.51C181,60.88,181.34,61.21,181.72,61.51L180.41,61.51L180.41,64.97L181.67000000000002,64.97L181.67000000000002,64.68L182.51999999999998,64.68L182.51999999999998,64.97L183.85,64.97L183.85,62.65C183.95999999999998,62.69,184.06,62.72,184.17000000000002,62.75C184.37,62.41,184.76999999999998,61.87,185.07999999999998,61.6C184.15,61.37,183.3,60.99,182.65,60.51L184.70999999999998,60.51Z" fill="#445564" fill-opacity="1"/></g></g></svg>