<svg xmlns="http://www.w3.org/2000/svg" xmlns:xlink="http://www.w3.org/1999/xlink" fill="none" version="1.1" width="357" height="585.0000610351562" viewBox="0 0 357 585.0000610351562"><defs><mask id="master_svg0_2_249" style="mask-type:alpha" maskUnits="objectBoundingBox"><g><g><g><path d="M655.0610293945313,74.00164789697266C657.4309293945313,73.20003389697266,657.4814293945312,73.22123289697265,662.9456293945312,77.31086189697265C665.5059293945312,79.22705189697265,668.0412293945312,81.02035189697266,668.5797293945312,81.29630189697265C669.1180293945313,81.57225189697266,670.5718293945313,82.35877189697266,671.8101293945313,83.04433189697265C677.6132293945312,86.25758189697265,683.8136293945313,88.43138189697265,694.4911293945313,90.99548189697265C707.1969293945313,94.04668189697266,697.8108293945313,101.19578189697265,679.1348293945313,102.69128189697265C663.3603293945313,103.95458189697266,608.1332943945313,107.23358189697265,607.6951293945312,103.26828189697265L629.5684293945312,87.61578189697266L655.0610293945313,74.00164789697266Z" fill="#DD6A5E" fill-opacity="1" style="mix-blend-mode:passthrough"/></g></g></g></mask></defs><g transform="matrix(-1,0,0,1,714,0)"><g><path d="M597.6751033447266,84.89835356201172C598.6353933447266,83.68210356201172,598.6919833447265,82.77952356201172,597.9032033447265,81.25965356201172C596.5764033447266,78.70354356201172,594.5765533447266,79.57809256201172,594.5765533447266,82.71412356201172C594.5765533447266,85.86740356201172,596.0756033447266,86.92376356201171,597.6751033447266,84.89835356201172Z" fill="#FBF3E0" fill-opacity="1" style="mix-blend-mode:passthrough"/></g><g><path d="M532.4834210693359,112.97135069580078C560.898521069336,107.75425069580078,581.724121069336,91.82475069580079,581.842821069336,75.21615069580078C581.9948210693359,53.97135069580078,553.2140210693359,60.40474069580078,526.761321069336,87.52845069580079C509.1431610693359,105.59375069580078,511.6621410693359,116.79405069580079,532.4834210693359,112.97135069580078Z" fill="#FBF3E0" fill-opacity="1" style="mix-blend-mode:passthrough"/></g><g><path d="M547.5058756103516,264.85180981445313C542.6031986103516,280.13180981445316,542.2897786103516,281.17980981445317,542.4768296103516,281.66580981445316C542.6658416103515,282.15580981445316,546.1117356103516,280.45980981445314,549.8226356103515,278.0478098144531C560.0251256103516,271.4218098144531,579.3301256103516,252.32080981445313,592.2827256103516,236.03580981445313C595.6725256103516,231.77380981445313,601.7067256103516,223.77480981445314,603.1515256103515,221.62780981445312C603.8722256103515,220.55680981445312,604.9301256103515,219.15480981445313,605.5026256103515,218.51280981445314C606.0750256103515,217.87080981445314,607.2288256103516,216.20580981445312,608.0666256103516,214.81380981445312C608.9045256103516,213.42180981445313,612.0805256103515,208.51480981445312,615.1244256103515,203.91080981445313C618.1684256103515,199.30680981445312,623.2949256103516,191.15780981445312,626.5168256103516,185.80380981445313C629.7386256103516,180.44980981445312,633.5880256103516,174.25380981445312,635.0711256103516,172.03500981445313C636.5541256103515,169.8159098144531,638.3638256103516,167.09990981445313,639.0925256103516,165.9993098144531C646.0091256103516,155.55290981445313,657.2711256103515,146.05920981445314,679.9091256103516,131.59140981445313C702.7611256103515,116.98630981445312,710.2571256103515,109.42930981445312,710.2691256103516,100.98420981445312C710.2771256103515,96.31680981445312,707.5411256103516,94.93200981445312,689.0201256103516,90.22900981445312C682.4271256103516,88.55470981445312,677.2621256103516,86.46240981445312,671.7601256103516,83.23583981445313C667.9671256103516,81.01208981445312,659.4611256103516,74.78816881445313,659.4611256103516,74.23735081445312C659.4611256103516,73.21907481445312,645.3291256103515,79.28237981445312,637.8042256103515,83.52938981445313C636.5346256103516,84.24580981445312,634.5118256103516,85.35970981445313,633.3093256103516,86.00390981445312C624.7265256103516,90.60340981445313,605.5764256103515,105.55490981445313,595.8118256103515,111.92830981445312C593.8782256103516,113.19040981445312,592.3585256103515,113.02450981445313,588.9717256103515,113.89010981445313C587.6204256103515,114.23550981445312,586.7675256103515,114.20650981445313,586.0359256103516,114.18160981445313C584.9338256103515,114.14410981445312,584.1066256103516,114.11600981445312,582.2645256103516,115.39090981445312C579.1996256103515,117.51230981445312,568.6056256103516,128.22360981445314,564.3896256103516,133.46370981445313C550.0869156103515,151.24120981445313,546.2916256103516,163.35130981445315,551.1585056103515,175.68080981445314C561.0014256103516,200.61780981445312,559.9601256103516,226.0378098144531,547.5058756103516,264.85180981445313Z" fill="#FBF3E0" fill-opacity="1" style="mix-blend-mode:passthrough"/></g><g><path d="M459.56318516235353,383.2829060058594C462.5528851623535,369.65890600585936,469.85438516235354,353.3629060058594,478.7532851623535,340.4548060058594C484.6012851623535,331.97190600585935,487.5923851623535,328.4849060058594,498.7153851623535,317.18140600585934L504.3128851623535,311.49250600585935L504.0568851623535,309.7829060058594C503.7888851623535,308.0033060058594,503.6898851623535,307.4776060058594,502.3998851623535,301.06430600585935C501.35758516235353,295.88060600585936,495.6368851623535,273.0624660058594,494.46288516235353,269.4061560058594C493.9333851623535,267.75693200585937,493.34738516235353,267.9700010058594,492.7355851623535,270.0345760058594C491.9921851623535,272.5425460058594,488.3667851623535,279.4362060058594,486.7613851623535,281.39440600585937C479.7738851623535,289.91680600585937,473.5895851623535,290.9358060058594,454.8419851623535,286.6536060058594C430.5988851623535,281.11630600585937,410.56336516235353,291.3814060058594,404.67368516235354,312.3570060058594C402.5988811623535,319.7462060058594,402.4658851623535,320.8604060058594,402.4658851623535,330.8531060058594L402.4658851623535,340.3934060058594L403.7570051623535,344.65910600585937C407.7150251623535,357.7364060058594,414.7514851623535,363.0549060058594,421.8674851623535,358.3479060058594C425.1212851623535,356.1957060058594,427.66278516235354,352.9034060058594,436.77988516235354,339.03050600585937C443.85078516235353,328.2711060058594,449.0629851623535,325.0793060058594,452.2106851623535,329.5818060058594C453.7835851623535,331.8318060058594,453.8641851623535,332.78330600585934,453.88198516235354,349.3103060058594C453.8907851623535,358.1126060058594,454.0602851623535,366.6289060058594,454.2572851623535,368.23500600585936C454.45428516235353,369.8409060058594,454.8950851623535,373.8719060058594,455.23688516235353,377.19090600585935C455.5786851623535,380.5109060058594,456.0983851623535,384.4539060058594,456.3918851623535,385.9529060058594C456.6852851623535,387.45190600585937,457.04418516235353,389.37790600585936,457.1894851623535,390.2329060058594C457.6142851623535,392.7329060058594,457.9342851623535,392.73390600585935,458.2526851623535,390.2329060058594C458.4163851623535,388.9479060058594,459.00608516235354,385.81990600585937,459.56318516235353,383.2809060058594L459.56318516235353,383.2829060058594Z" fill="#FBF3E0" fill-opacity="1" style="mix-blend-mode:passthrough"/></g><g><path d="M655.6773287353516,277.99084643554687C652.9674287353515,277.35484643554685,651.7224287353515,276.4138464355469,646.0076287353515,270.6778464355469C640.3637287353515,265.01394643554687,632.6236287353515,255.88904643554687,627.4684287353516,248.8218464355469C625.9843287353516,246.78744643554688,624.1317287353515,244.24634643554685,623.3515287353515,243.17564643554687C619.8167287353516,238.32394643554687,612.6764987353515,227.24114643554688,610.8082587353516,223.70584643554687C609.6763787353516,221.56444643554687,608.4285787353516,219.3467464355469,608.0353367353515,218.77834643554687C606.7340407353515,216.89704643554688,606.3445187353516,217.67454643554686,615.6153287353516,203.65224643554689C618.5180287353515,199.2618464355469,623.5290287353515,191.28884643554687,626.7508287353515,185.93474643554688C636.6104287353515,169.54966643554687,640.5440287353515,164.02496643554687,640.5440287353515,166.56239143554689C640.5440287353515,166.92816643554687,643.6607287353515,172.48341643554687,648.1354287353515,180.09394643554688C664.1980287353516,207.41164643554688,670.8141287353516,238.87654643554686,665.7804287353515,264.01154643554685C663.9391287353516,273.20584643554685,662.5198287353516,276.32584643554685,659.5729287353515,277.6588464355469C657.7589287353516,278.47984643554685,657.7603287353515,278.47984643554685,655.6773287353516,277.99084643554687Z" fill="#1E1E1E" fill-opacity="1" style="mix-blend-mode:passthrough"/></g><g><path d="M396.0306,584.089C393.6472,582.567,391.2872,578.445,388.2891,570.565C376.9859,540.858,384.1748,509.633,409.2021,479.731C416.65,470.833,417.5434,469.712,419.166,467.226C424.7478,458.674,423.4831,451.32,413.3812,433.588C404.696,418.344,395.3047,399.996,391.9552,391.729C385.9414,376.886,379.9451,353.202,377.7095,335.461C377.3857,332.892,376.8089,328.336,376.4279,325.337C370.9576,282.29,384.6007,213.287,407.4798,168.287L413.1551,157.124L412.9504,150.697C412.1418,125.303,400.0511,103.808,374.9506,83.1383C360.48593,71.2269,356.239084,66.7312,357.107659,64.2491C359.90792,56.2467,375.146,55.1152,406.4153,60.5885C430.658,64.8319,466.359,75.6834,471.084,80.2451C471.841,80.9756,472.528,80.5268,475.688,77.2381C496.598,55.4741,538.215,27.7083,565.498,17.319C621.717,-4.08963,647.366,-5.36589,674.159,11.9139C685.058,18.9434,688.152,20.5416,697.415,23.9299C709.4870000000001,28.345,713.6220000000001,32.3193,713.971,39.8421C714.325,47.4602,711.694,49.6649,691.552,58.6271C686.4010000000001,60.9194,680.615,63.6369,663.315,71.888C660.898,73.0407,658.7660000000001,73.9842,658.576,73.9842C658.053,73.9842,640.681,82.1696,638.04,83.6596C636.771,84.3761,634.748,85.4899,633.5450000000001,86.1342C624.963,90.7337,604.971,104.555,596.048,112.059Q595.28,113.652,593.5699999999999,114.143C591.86,114.633,591.389,114.081,589.208,114.02C587.027,113.959,585.917,113.654,584.846,113.898Q583.774,114.311,582.501,115.521C581.227,116.731,568.842,128.354,564.626,133.594C550.323,151.371,546.528,163.482,551.395,175.811C561.238,200.749,560.196,226.181,547.741,264.983C543.424,278.43,542.425,281.669,542.431,282.182C542.456,284.114,533.965,307.76,531.269,313.267C518.609,339.13,508.103,337.916,504.30600000000004,310.152C503.98400000000004,307.796,503.558,305.343,503.35900000000004,304.701C503.15999999999997,304.058,502.8,302.394,502.55899999999997,301.002C501.949,297.486,495.911,273.313,494.699,269.538C494.16999999999996,267.889,493.584,268.102,492.972,270.166C492.228,272.674,488.603,279.568,486.998,281.526C480.01,290.049,473.826,291.068,455.0782,286.785C430.8351,281.248,410.7996,291.513,404.9099,312.489C402.8351,319.878,402.7021,320.992,402.7021,330.985L402.7021,340.525L403.9932,344.79C407.9512,357.868,414.9877,363.186,422.1037,358.479C425.3575,356.327,427.899,353.035,437.0161,339.162C444.0871,328.402,449.2992,325.211,452.4469,329.713C454.01980000000003,331.963,454.1004,332.915,454.1182,349.442C454.127,358.244,454.2965,366.76,454.4935,368.366C454.6905,369.972,455.1313,374.003,455.4731,377.322C455.81489999999997,380.642,456.3371,384.585,456.6335,386.084C456.9299,387.583,457.286,389.598,457.425,390.562C457.56399999999996,391.525,457.916,393.015,458.207,393.871C458.545,394.866,458.819,398.274,458.96299999999997,403.295C459.799,432.367,467.631,442.349,490.66700000000003,443.701C523.27,445.613,548.987,455.564,567.597,473.468C575.968,481.521,577.066,485.03,572.634,489.562C570.379,491.867,569.938,491.869,556.703,489.612C541.69,487.051,534.127,488.463,517.3779999999999,496.954C497.27,507.148,484.44,507.834,476.589,499.135C474.724,497.068,474.039,496.8,474.027,498.132C473.996,501.42,469.562,509.071,465.045,513.631C459.266,519.465,453.8113,522.746,441.9842,527.505C427.9537,533.15,423.4723,536.272,416.4513,545.295C409.901,553.714,407.0782,560.201,403.2985,575.524C401.1344,584.297,399.455,586.277,396.0306,584.089L396.0306,584.089ZM532.72,113.102C561.135,107.885,581.96,91.9553,582.079,75.3467C582.231,54.102,553.45,60.5353,526.998,87.6591C509.379,105.724,511.898,116.925,532.72,113.102ZM597.9110000000001,85.0293C598.8720000000001,83.8131,598.928,82.9105,598.14,81.3906C596.813,78.8345,594.813,79.709,594.813,82.8451C594.813,85.9984,596.312,87.0547,597.9110000000001,85.0293Z" fill="#1E1E1E" fill-opacity="1" style="mix-blend-mode:passthrough"/></g><g><path d="M396.42319613437655,584.0723069286346C392.1329961343765,580.7103069286346,384.91599613437654,559.6553069286347,385.2437961343765,551.4573069286347C385.2955961343765,550.1713069286346,385.32069613437653,550.1353069286347,385.4531961343765,551.1613069286346C385.8159961343765,553.9743069286346,386.7810961343765,558.0773069286347,387.32719613437655,559.1293069286346C387.65399613437654,559.7583069286346,387.9212961343765,560.8843069286346,387.9212961343765,561.6323069286346C387.9212961343765,562.3803069286347,388.09719613437653,563.1003069286346,388.31209613437653,563.2323069286347C388.5270961343765,563.3653069286346,388.7029961343765,563.8153069286346,388.7029961343765,564.2343069286346C388.7029961343765,564.9763069286347,389.23529613437654,566.1393069286346,390.11509613437653,567.3213069286346C390.3542961343765,567.6423069286346,390.66279613437655,568.5183069286346,390.80049613437654,569.2683069286346C390.9377961343765,570.0173069286346,391.2919961343765,571.1563069286346,391.5863961343765,571.7993069286347C395.0383961343765,579.3313069286346,396.40149613437654,581.3393069286346,398.0610961343765,581.3393069286346C399.2065961343765,581.3393069286346,400.82269613437654,577.4173069286346,400.7631961343765,574.7823069286346C400.72029613437655,572.9053069286347,401.42549613437654,570.3283069286347,403.0302961343765,566.4933069286346C403.53439613437655,565.2883069286346,403.94679613437654,563.8533069286347,403.94679613437654,563.3043069286347C403.94679613437654,562.7543069286346,404.1155961343765,562.2013069286346,404.3218961343765,562.0743069286347C404.5281961343765,561.9473069286346,404.98799613437654,560.8413069286346,405.3433961343765,559.6173069286347C405.69899613437656,558.3933069286346,406.2439961343765,556.9093069286347,406.5544961343765,556.3203069286346C406.8648961343765,555.7313069286347,407.01719613437655,555.0843069286346,406.8925961343765,554.8843069286346C406.7684961343765,554.6833069286347,406.8940961343765,554.3773069286347,407.17259613437653,554.2033069286347C407.79329613437653,553.8163069286346,409.0279961343765,551.9253069286347,409.0279961343765,551.3613069286347C409.0279961343765,550.9763069286347,410.90199613437653,547.8893069286346,411.39539613437654,547.4623069286347C411.51949613437654,547.3553069286346,412.29239613437653,546.2493069286346,413.11389613437655,545.0053069286347C413.93549613437654,543.7603069286347,415.0669961343765,542.2473069286347,415.6286961343765,541.6413069286347C416.19039613437656,541.0353069286347,416.85059613437653,540.3013069286346,417.0956961343765,540.0103069286347C417.34079613437655,539.7183069286347,418.29079613437654,538.8663069286347,419.2068961343765,538.1173069286347C420.12279613437653,537.3673069286347,421.5421961343765,536.0973069286347,422.36099613437653,535.2933069286346C423.1796961343765,534.4903069286346,424.20849613437656,533.8333069286347,424.6470961343765,533.8333069286347C425.09119613437656,533.8333069286347,425.4443961343765,533.5773069286347,425.4443961343765,533.2563069286347C425.4443961343765,532.6873069286346,428.8483961343765,530.7183069286347,429.8323961343765,530.7183069286347C430.11029613437654,530.7183069286347,430.5573961343765,530.3683069286346,430.82589613437653,529.9393069286347C431.0942961343765,529.5113069286347,431.6252961343765,529.1603069286347,432.00549613437653,529.1603069286347C432.3857961343765,529.1603069286347,433.0438961343765,528.9193069286347,433.4679961343765,528.6253069286347C434.37969613437656,527.9913069286347,439.3617961343765,525.8423069286347,441.8607961343765,525.0043069286346C444.43369613437653,524.1413069286347,454.6679961343765,519.0153069286347,455.67999613437655,518.0833069286347C456.1567961343765,517.6433069286346,456.98029613437654,516.9823069286347,457.50969613437655,516.6143069286346C458.03939613437655,516.2453069286346,459.2888961343765,515.3693069286346,460.2878961343765,514.6663069286346C461.9238961343765,513.5163069286347,465.7038961343765,509.35330692863465,465.7038961343765,508.70230692863464C465.7038961343765,508.55830692863464,466.1538961343765,507.9073069286346,466.70489613437655,507.25530692863464C468.17889613437654,505.51030692863463,470.00289613437656,501.70730692863464,470.00289613437656,500.37930692863466C470.00289613437656,499.74330692863464,470.16689613437654,499.12230692863466,470.36689613437653,498.99930692863467C470.5668961343765,498.8763069286346,470.8408961343765,497.77130692863466,470.9758961343765,496.54330692863465C471.1098961343765,495.31430692863466,471.38589613437654,493.91130692863464,471.5858961343765,493.42330692863464C471.8028961343765,492.8953069286346,471.80889613437654,492.26430692863465,471.6008961343765,491.86530692863465C471.40789613437653,491.4963069286346,471.0618961343765,489.44230692863465,470.8318961343765,487.30130692863463C470.60189613437655,485.15930692863463,470.1658961343765,482.42030692863466,469.8628961343765,481.21430692863464C468.74889613437654,476.7703069286346,470.6318961343765,477.27930692863464,472.00089613437655,481.79130692863464C473.6248961343765,487.14430692863465,476.43389613437654,495.32630692863466,477.02689613437656,496.43030692863465C480.1918961343765,502.32130692863467,495.97889613437655,505.84830692863466,501.2278961343765,501.83630692863466C501.7398961343765,501.44430692863466,502.46789613437653,501.12430692863467,502.84489613437654,501.12430692863467C503.2228961343765,501.12430692863467,504.9878961343765,500.4073069286346,506.7688961343765,499.53130692863465C508.5498961343765,498.6553069286346,510.3718961343765,497.86830692863464,510.8178961343765,497.7823069286346C511.26289613437655,497.69730692863465,511.68389613437654,497.45830692863467,511.75289613437656,497.25330692863463C511.93189613437653,496.7173069286346,522.1248961343765,491.77830692863466,523.0498961343765,491.77830692863466C523.4738961343766,491.77830692863466,524.1398961343765,491.42730692863466,524.5288961343765,490.99930692863467C524.9178961343765,490.57130692863467,525.5588961343765,490.22030692863467,525.9538961343765,490.22030692863467C526.3478961343765,490.22030692863467,527.5958961343765,489.87030692863465,528.7268961343765,489.44230692863465C529.8578961343765,489.0133069286346,531.3108961343765,488.65930692863463,531.9558961343765,488.65430692863464C532.5998961343765,488.65430692863464,533.8948961343765,488.2993069286346,534.8318961343765,487.87530692863464C536.7978961343765,486.98630692863463,538.0878961343765,486.90330692863466,539.2038961343765,487.5923069286346C539.7708961343765,487.94230692863465,540.0708961343765,487.95830692863467,540.2728961343765,487.64830692863467C541.0178961343765,486.50930692863466,544.9488961343766,486.2103069286346,549.9348961343765,486.91530692863466C550.7948961343766,487.0373069286346,552.2018961343765,487.22630692863464,553.0618961343765,487.33830692863467C553.9218961343765,487.4483069286346,556.4728961343765,487.78930692863463,558.7298961343765,488.09430692863464C560.9868961343766,488.39830692863467,563.4498961343766,488.66830692863465,564.2018961343765,488.69230692863465C564.9538961343765,488.7173069286346,566.3108961343765,488.76030692863463,567.2158961343765,488.78630692863464C570.2808961343765,488.88030692863464,572.6218961343766,485.7683069286346,570.7408961343765,484.09930692863463C570.3098961343765,483.71830692863466,569.7148961343765,482.8353069286346,569.4188961343765,482.13930692863465C569.0698961343766,481.3163069286346,568.6108961343765,480.87430692863467,568.1048961343765,480.87430692863467C567.6298961343765,480.87430692863467,567.3248961343766,480.6093069286346,567.3178961343765,480.19230692863465C567.3178961343765,479.8183069286346,566.6088961343766,479.08130692863466,565.7548961343765,478.5563069286346C564.9008961343766,478.03130692863465,564.2018961343765,477.39830692863467,564.2018961343765,477.14930692863464C564.2018961343765,476.9003069286346,563.4978961343766,476.21130692863466,562.6388961343765,475.61730692863466C561.7788961343765,475.02330692863467,561.0748961343766,474.2943069286346,561.0748961343766,473.99730692863466C561.0748961343766,473.69930692863466,560.6548961343765,473.29730692863467,560.1428961343765,473.10330692863465C559.6298961343765,472.90830692863466,558.4418961343765,471.84930692863463,557.5038961343765,470.74830692863463C556.5658961343765,469.64730692863463,555.1388961343765,468.4773069286346,554.3328961343766,468.14830692863467C553.5258961343766,467.81930692863466,552.8668961343765,467.39730692863463,552.8668961343765,467.2103069286346C552.8668961343765,467.02430692863464,552.2068961343765,466.51230692863464,551.4008961343766,466.07430692863466C550.5948961343765,465.63630692863467,548.9678961343766,464.58130692863466,547.7858961343766,463.73130692863464C546.6028961343766,462.88030692863464,545.3258961343765,462.18330692863464,544.9478961343765,462.18330692863464C544.5698961343766,462.18330692863464,543.9588961343766,461.83230692863464,543.5908961343765,461.40430692863464C543.2228961343765,460.97630692863464,542.7748961343765,460.62530692863464,542.5958961343765,460.62530692863464C541.9338961343765,460.62530692863464,538.9068961343766,459.08630692863466,538.4208961343766,458.50230692863465C538.1438961343765,458.17030692863466,537.5218961343766,457.89930692863464,537.0368961343765,457.89930692863464C536.5518961343765,457.89930692863464,535.9478961343765,457.6503069286346,535.6938961343765,457.34530692863467C535.4398961343766,457.04130692863464,534.5388961343765,456.67530692863465,533.6918961343765,456.5323069286346C532.8438961343766,456.39030692863463,532.1508961343766,456.14130692863466,532.1508961343766,455.98030692863466C532.1508961343766,455.5663069286346,530.3148961343766,454.78430692863463,529.3418961343765,454.78430692863463C528.8918961343766,454.78430692863463,528.3288961343765,454.52730692863463,528.0898961343765,454.21430692863464C527.8428961343766,453.89130692863466,526.8538961343766,453.59630692863465,525.7998961343765,453.53330692863466C524.7788961343765,453.47130692863465,523.9428961343765,453.2923069286346,523.9428961343765,453.13430692863466C523.9428961343765,452.64730692863463,521.5048961343765,451.80730692863466,519.3678961343766,451.55830692863464C518.2488961343765,451.42730692863466,516.9168961343765,451.0493069286346,516.4088961343765,450.7173069286346C515.8828961343766,450.37330692863463,514.3188961343765,450.0493069286346,512.7708961343765,449.96230692863463C511.27689613437656,449.87830692863463,509.35489613437653,449.51730692863464,508.49789613437656,449.15930692863463C507.2788961343765,448.65130692863465,505.4088961343765,448.48730692863467,499.9038961343765,448.40430692863464C492.9718961343765,448.30030692863465,489.4298961343765,447.72630692863464,488.1778961343765,446.5013069286346C487.6778961343765,446.01130692863467,500.36389613437655,446.45830692863467,502.8358961343765,447.01730692863464C503.8028961343765,447.23630692863463,506.2398961343765,447.58730692863463,508.2498961343765,447.79830692863464C512.1098961343765,448.20130692863466,517.8718961343766,449.35630692863464,520.8158961343765,450.31430692863466C521.7828961343765,450.62930692863466,524.2458961343765,451.39130692863466,526.2878961343765,452.0083069286346C550.4928961343766,459.31530692863464,577.3018961343765,479.38530692863463,573.8358961343765,487.60330692863465C572.1378961343765,491.62830692863463,570.5418961343765,491.96330692863467,561.2088961343766,490.2513069286346C541.5748961343766,486.6503069286346,536.5168961343766,487.39030692863463,518.4768961343765,496.5013069286346C497.20489613437655,507.24430692863467,485.21489613437654,507.91830692863465,476.9898961343765,498.8353069286346C475.9958961343765,497.73730692863467,475.02789613437653,496.84130692863465,474.83989613437654,496.84430692863464C473.92689613437653,496.86030692863466,473.43089613437655,497.71830692863466,472.91489613437653,500.17330692863464C470.7838961343765,510.32230692863465,460.03289613437653,520.2043069286347,444.11299613437654,526.6473069286346C427.97029613437655,533.1813069286346,423.4756961343765,536.1343069286346,416.58399613437655,544.7333069286346C409.3531961343765,553.7553069286347,406.3812961343765,560.2403069286346,402.8062961343765,574.7983069286346C400.3295961343765,584.8833069286346,399.32429613437654,586.3433069286347,396.4228961343765,584.0693069286347L396.42319613437655,584.0723069286346ZM385.2102961343765,535.1963069286346C384.89649613437655,525.3893069286346,392.6726961343765,505.68030692863465,402.34129613437653,491.77930692863464C405.1807961343765,487.69630692863467,406.96239613437655,485.45630692863466,416.43049613437654,474.0613069286346C426.60579613437653,461.8163069286346,426.3712961343765,454.68830692863463,415.15309613437654,435.22330692863466C409.32809613437655,425.11630692863463,399.78239613437654,406.98630692863463,396.3413961343765,399.49430692863467C387.75449613437655,380.79830692863464,381.74029613437654,357.44930692863466,378.73819613437655,331.15430692863464C378.42029613437654,328.37030692863465,377.9817961343765,324.69030692863464,377.76359613437654,322.9773069286346C377.5453961343765,321.2633069286346,377.38109613437655,317.75930692863466,377.39859613437653,315.18930692863466L377.42959613437654,310.51630692863466L377.92979613437655,312.8523069286346C378.20489613437655,314.13730692863464,378.5426961343765,318.5183069286346,378.68029613437653,322.58730692863463C378.82499613437653,326.87830692863463,379.17119613437654,330.9673069286346,379.5030961343765,332.32230692863465C379.8180961343765,333.60730692863467,380.0818961343765,335.54830692863464,380.0895961343765,336.63730692863464C380.10439613437654,337.72530692863467,380.4373961343765,339.74030692863465,380.84539613437653,341.11530692863465C381.25339613437654,342.4893069286346,381.7722961343765,345.01630692863466,381.9982961343765,346.7293069286346C382.7729961343765,352.60330692863465,383.62709613437653,357.24430692863467,384.1841961343765,358.60630692863464C384.7394961343765,359.96330692863467,385.8300961343765,363.45230692863464,386.7407961343765,366.78330692863466C387.00429613437655,367.7463069286346,387.46349613437656,369.23630692863463,387.7611961343765,370.09430692863464C388.0587961343765,370.95130692863466,388.4966961343765,372.7033069286346,388.7339961343765,373.98830692863464C388.9713961343765,375.27230692863463,389.31539613437656,376.50430692863466,389.49839613437655,376.72630692863464C389.8993961343765,377.21130692863466,391.6416961343765,382.0853069286346,391.9991961343765,383.7223069286346C392.37389613437654,385.43730692863465,395.78239613437654,394.49730692863466,396.3898961343765,395.3933069286346C396.6762961343765,395.81530692863464,396.91079613437654,396.43830692863463,396.91079613437654,396.77730692863463C396.91079613437654,397.35730692863467,399.87909613437654,403.34830692863466,406.8413961343765,416.82030692863464C410.4586961343765,423.81930692863466,410.33669613437655,423.5853069286346,410.99999613437654,424.80230692863466C411.29169613437654,425.33830692863467,411.83179613437653,426.35330692863465,412.2002961343765,427.05930692863467C412.5686961343765,427.76530692863463,413.08429613437653,428.59930692863463,413.34579613437654,428.91330692863465C413.7924961343765,429.45030692863463,414.0867961343765,429.95130692863466,415.9593961343765,433.36930692863467C420.2960961343765,441.28430692863463,421.92619613437654,444.3813069286347,421.92619613437654,444.7053069286346C421.92619613437654,444.9173069286346,422.1728961343765,445.56530692863464,422.4742961343765,446.14630692863466C422.7757961343765,446.72630692863464,423.11339613437656,447.77630692863465,423.2242961343765,448.4773069286346C423.4409961343765,449.84830692863466,424.5075961343765,453.63530692863463,425.08849613437656,455.09630692863465C426.64719613437654,459.0183069286346,423.5684961343765,467.94230692863465,418.6191961343765,473.8473069286346C417.7507961343765,474.8833069286346,416.3368961343765,476.56430692863466,415.47689613437655,477.58230692863464C414.6169961343765,478.60030692863467,413.7595961343765,479.71330692863467,413.5716961343765,480.05730692863466C413.38379613437655,480.4003069286346,413.0129961343765,480.85730692863467,412.74779613437653,481.07230692863465C410.4343961343765,482.9533069286346,402.46019613437653,493.56730692863465,399.87819613437654,498.2033069286346C399.5204961343765,498.84530692863467,398.7183961343765,500.16030692863467,398.0958961343765,501.12330692863463C396.9289961343765,502.93030692863465,394.5655961343765,507.4293069286346,394.5655961343765,507.84430692863464C394.5655961343765,507.97330692863466,394.05589613437655,509.1863069286346,393.43299613437654,510.53930692863463C391.56569613437654,514.5963069286346,388.48889613437655,524.2393069286346,386.8709961343765,531.1073069286347C386.15419613437655,534.1493069286346,385.24779613437653,536.3803069286347,385.2102961343765,535.1963069286346L385.2102961343765,535.1963069286346ZM475.8628961343765,445.34930692863463C474.04189613437654,444.72330692863466,472.4618961343765,444.09430692863464,472.3528961343765,443.95030692863463C472.2428961343765,443.8063069286346,471.2988961343765,443.26030692863463,470.2548961343765,442.73630692863463C469.2108961343765,442.21330692863467,468.25289613437656,441.51530692863463,468.1268961343765,441.18730692863465C467.9998961343765,440.8593069286346,467.4188961343765,440.19030692863464,466.8338961343765,439.70030692863463C464.3898961343765,437.65130692863465,461.2928961343765,432.07030692863464,460.2108961343765,427.76530692863463C460.0438961343765,427.10030692863467,459.52789613437653,425.24530692863465,459.06589613437654,423.64230692863464C458.5378961343765,421.81730692863465,458.3128961343765,420.25530692863464,458.46289613437654,419.4603069286346C458.6028961343765,418.7173069286346,458.4478961343765,417.46330692863467,458.10299613437655,416.43430692863467C457.70499613437653,415.26630692863466,457.4208961343765,412.35730692863467,457.25679613437654,407.76630692863466C457.1208961343765,403.9653069286346,456.85399613437653,400.44630692863467,456.66349613437654,399.94630692863467C456.47309613437653,399.44730692863465,456.4128961343765,398.88430692863466,456.5290961343765,398.69530692863464C456.6457961343765,398.50730692863465,456.35509613437654,397.2513069286346,455.8829961343765,395.9053069286346C455.2123961343765,393.99330692863464,455.0116961343765,392.4773069286346,454.9656961343765,388.9793069286346C454.9316961343765,386.36130692863463,454.62339613437655,383.23530692863466,454.2245961343765,381.4533069286346C453.7822961343765,379.47830692863465,453.5044961343765,376.32630692863466,453.43499613437655,372.49730692863466L453.3270961343765,366.58930692863464L453.8349961343765,370.28830692863465C454.1141961343765,372.3233069286346,454.5319961343765,375.82730692863464,454.76329613437656,378.07630692863466C455.34629613437653,383.74530692863465,456.35779613437654,390.74030692863465,457.12819613437654,394.43030692863465C457.3291961343765,395.39430692863465,457.5879961343765,399.16130692863464,457.7032961343765,402.80330692863464C458.51589613437653,428.49130692863463,465.41489613437653,441.10130692863464,480.94589613437654,445.2873069286346C482.87389613437654,445.80730692863466,483.85889613437655,446.2173069286346,483.29189613437654,446.26430692863465C480.08789613437654,446.5323069286346,478.8698961343765,446.38230692863465,475.8628961343765,445.34930692863463L475.8628961343765,445.34930692863463ZM452.74339613437655,362.66330692863465C452.5030961343765,350.63530692863463,452.5000961343765,347.33930692863464,452.7256961343765,343.0303069286346C453.15989613437654,334.74230692863466,453.5086961343765,340.93730692863465,453.33809613437654,353.90630692863465C453.19479613437653,364.7393069286346,452.8782961343765,369.41030692863467,452.74339613437655,362.66330692863465ZM412.8977961343765,362.76030692863463C410.94719613437655,361.69430692863466,409.28169613437655,360.40130692863465,408.0469961343765,358.99530692863465C407.01289613437655,357.81730692863465,406.0546961343765,356.76630692863466,405.91779613437654,356.65930692863463C405.54549613437655,356.36830692863464,403.5559961343765,352.1693069286346,403.5559961343765,351.67530692863465C403.5559961343765,351.43930692863466,403.26159613437653,351.08230692863464,402.90189613437656,350.8813069286347C402.52269613437653,350.67030692863466,402.2016961343765,349.9313069286346,402.13769613437654,349.12330692863463C402.0770961343765,348.35630692863464,401.7666961343765,347.32930692863465,401.44789613437655,346.83930692863464C401.0858961343765,346.28430692863463,400.88909613437653,345.11930692863467,400.9237961343765,343.73730692863467C400.9547961343765,342.5203069286346,400.7937961343765,341.11730692863466,400.5671961343765,340.62230692863466C399.50549613437653,338.2993069286346,399.3200961343765,336.8643069286346,399.43029613437653,331.82130692863467C399.51739613437655,327.8233069286346,399.7160961343765,326.09530692863467,400.2201961343765,324.94630692863467C400.59689613437655,324.08630692863466,400.95109613437654,322.11530692863465,401.0249961343765,320.46830692863466C401.1697961343765,317.24330692863464,402.5412961343765,311.2463069286346,403.3460961343765,310.32130692863467C403.6255961343765,310.00030692863464,403.9814961343765,309.2993069286346,404.13679613437654,308.7633069286346C404.2919961343765,308.22830692863465,404.6540961343765,307.41830692863465,404.94129613437656,306.96330692863467C405.22849613437654,306.5083069286346,405.54489613437653,305.43030692863465,405.64449613437654,304.56730692863465C405.7448961343765,303.70230692863464,406.1859961343765,302.63930692863465,406.62879613437656,302.19730692863465C407.07069613437653,301.75730692863465,407.77519613437653,300.7273069286346,408.1943961343765,299.90930692863463C409.79229613437656,296.78830692863465,421.73189613437654,288.14030692863463,424.46439613437656,288.12330692863463C424.6809961343765,288.1213069286346,425.34829613437654,287.86630692863463,425.94719613437655,287.5543069286346C427.1452961343765,286.93230692863466,431.81479613437654,285.77830692863466,437.57539613437655,284.68230692863466C441.15369613437656,284.0013069286346,444.22899613437653,284.03830692863465,447.72389613437656,284.8043069286346C448.2613961343765,284.92230692863467,450.2840961343765,285.12730692863465,452.2188961343765,285.25930692863466C454.61389613437655,285.42330692863464,456.1255961343765,285.73230692863467,456.95539613437654,286.2293069286346C457.6255961343765,286.63030692863464,458.78689613437655,286.95830692863467,459.5358961343765,286.95830692863467C460.2838961343765,286.95830692863467,461.47889613437655,287.16030692863467,462.18889613437653,287.4073069286346C462.8998961343765,287.65430692863464,464.9928961343765,288.1743069286346,466.83989613437654,288.56230692863465L470.1988961343765,289.2683069286346L466.4858961343765,289.10630692863464C463.06389613437653,288.95830692863467,459.40789613437653,288.26430692863465,453.3913961343765,286.62430692863467C425.0732961343765,278.90230692863463,401.99249613437655,299.29030692863466,401.99249613437655,332.02630692863465C401.99249613437655,360.97330692863466,418.49029613437654,372.18730692863465,430.7870961343765,351.5973069286346C431.3626961343765,350.6333069286346,432.32129613437655,349.23130692863464,432.91739613437653,348.48230692863467C433.5134961343765,347.73230692863467,434.2305961343765,346.68030692863465,434.5109961343765,346.1433069286346C442.2118961343765,331.40930692863463,452.43979613437654,325.00230692863465,453.0462961343765,334.5323069286346C453.1733961343765,336.53830692863465,453.0211961343765,336.47530692863467,452.2380961343765,334.1983069286346C450.8907961343765,330.27830692863466,446.4253961343765,330.65130692863465,443.44989613437656,334.93230692863466C442.36349613437653,336.49530692863465,441.20969613437654,338.11530692863465,440.88609613437654,338.53430692863463C440.5623961343765,338.95230692863464,440.2974961343765,339.45430692863465,440.2974961343765,339.64830692863467C440.2974961343765,339.8423069286346,439.5938961343765,340.83930692863464,438.7340961343765,341.86230692863467C437.87409613437654,342.88530692863463,437.17049613437655,343.84630692863465,437.17049613437655,343.99830692863463C437.17049613437655,344.5683069286346,434.1780961343765,349.0613069286346,432.6524961343765,350.78130692863465C431.77989613437654,351.76530692863463,430.4316961343765,353.53430692863463,429.6565961343765,354.71230692863463C428.8812961343765,355.89030692863463,427.59379613437653,357.5543069286346,426.7953961343765,358.41130692863464C425.99699613437656,359.2683069286346,425.0822961343765,360.36330692863464,424.76289613437655,360.84530692863467C424.44339613437654,361.32730692863464,423.88569613437653,361.72130692863465,423.5234961343765,361.72130692863465C423.1611961343765,361.72130692863465,422.6977961343765,361.86830692863464,422.4934961343765,362.04830692863464C422.2892961343765,362.22830692863465,421.5064961343765,362.6143069286346,420.75409613437654,362.90830692863466C420.00179613437655,363.20030692863463,419.1535961343765,363.6673069286346,418.8696961343765,363.94430692863466C417.96309613437654,364.82730692863464,415.95159613437653,364.42830692863464,412.8977961343765,362.76030692863463ZM512.9988961343765,331.30030692863465C510.6258961343765,330.35830692863465,508.78189613437655,327.4843069286346,508.4518961343765,324.2153069286346L508.24789613437656,322.19730692863465L509.45089613437653,324.3043069286346C510.11189613437654,325.46230692863463,510.65289613437653,326.71230692863463,510.65289613437653,327.0803069286346C510.65289613437653,329.59830692863466,516.1348961343765,330.41030692863467,517.0518961343765,328.02830692863466C517.1728961343765,327.71230692863463,517.5918961343765,327.45430692863465,517.9808961343765,327.45430692863465C518.8548961343765,327.45430692863465,522.3558961343765,323.80730692863466,523.3818961343766,321.8283069286346C523.7978961343765,321.02630692863465,524.3128961343765,320.03430692863463,524.5258961343766,319.62530692863464C524.7388961343765,319.2153069286346,525.1918961343765,318.7923069286346,525.5318961343766,318.68430692863467C525.8718961343766,318.57730692863464,526.4018961343766,317.98330692863465,526.7078961343766,317.36530692863465C527.0148961343765,316.74730692863466,527.9988961343765,314.77830692863466,528.8958961343765,312.9893069286346C530.7018961343765,309.38730692863464,532.5418961343765,304.84530692863467,532.5418961343765,303.98630692863463C532.5418961343765,303.6813069286346,532.8938961343765,303.02730692863463,533.3238961343766,302.53330692863466C533.7538961343765,302.03930692863463,534.1048961343765,301.30230692863466,534.1048961343765,300.89630692863466C534.1048961343765,300.49030692863465,534.3788961343765,299.6313069286347,534.7128961343765,298.98730692863467C535.0468961343765,298.34330692863466,535.3908961343766,297.2563069286347,535.4758961343765,296.5733069286346C535.5618961343765,295.88530692863463,535.9888961343765,295.0903069286346,536.4318961343765,294.79530692863466C536.8718961343766,294.5013069286346,537.2318961343765,293.8423069286346,537.2318961343765,293.32930692863465C537.2318961343765,292.81730692863465,537.3958961343765,292.09430692863464,537.5948961343765,291.7223069286346C538.7858961343766,289.50330692863463,539.5778961343765,287.33730692863463,539.5778961343765,286.29830692863464C539.5778961343765,285.64230692863464,539.8158961343765,284.90830692863466,540.1078961343765,284.6673069286346C540.4278961343765,284.40230692863463,540.7278961343766,283.0303069286346,540.8638961343765,281.21230692863463C541.0978961343765,278.09130692863465,542.3128961343765,272.88430692863466,543.3098961343765,270.7343069286346C544.0458961343766,269.14830692863467,545.4838961343766,264.51730692863464,545.3688961343765,264.10530692863466C545.2358961343765,263.6263069286346,546.2298961343765,260.7993069286346,546.9098961343766,259.7223069286346C547.5188961343765,258.75930692863466,548.8638961343765,254.25030692863464,549.1828961343765,252.10730692863464C549.2788961343765,251.46430692863464,549.7298961343765,250.15030692863465,550.1868961343765,249.18630692863465C550.6438961343765,248.22330692863466,551.3338961343766,246.15330692863463,551.7198961343765,244.58630692863466C552.1058961343765,243.02030692863465,552.6288961343765,241.48930692863465,552.8828961343766,241.18430692863464C553.1418961343766,240.87430692863464,553.2658961343766,239.98730692863464,553.1648961343765,239.16530692863464C553.0408961343766,238.14730692863463,553.2728961343765,237.06630692863465,553.9288961343765,235.62430692863464C554.4478961343765,234.48230692863464,555.0268961343766,232.81830692863466,555.2158961343765,231.92530692863465C555.4938961343765,230.60930692863465,555.5218961343766,230.81930692863463,555.3668961343765,233.02730692863463C555.1008961343765,236.80630692863465,553.0708961343765,246.62830692863466,551.3028961343765,252.69130692863465C549.6178961343766,258.4673069286346,543.1548961343765,278.48230692863467,541.0558961343766,284.42730692863466C540.2998961343765,286.5683069286346,538.4928961343766,291.91330692863465,537.0398961343765,296.30330692863464C531.4138961343765,313.31330692863463,527.6698961343766,320.72830692863465,521.5758961343765,326.93430692863467C517.7828961343765,330.79730692863467,515.1308961343765,332.14730692863463,512.9988961343765,331.30030692863465ZM506.56589613437654,316.00330692863463C505.98689613437654,313.52430692863464,505.27689613437656,310.0493069286346,504.98689613437654,308.2803069286346C504.6968961343765,306.51230692863464,504.35889613437655,304.80130692863463,504.23689613437654,304.48030692863466C504.11389613437655,304.15930692863463,503.85489613437653,302.84430692863464,503.66189613437655,301.56030692863465C503.46889613437656,300.2753069286346,502.3988961343765,295.71930692863464,501.2838961343765,291.43530692863465C500.1678961343765,287.15230692863463,499.0288961343765,282.68430692863467,498.7518961343765,281.5063069286347C496.5068961343765,271.9723069286346,495.18989613437657,268.26730692863464,494.04589613437656,268.26730692863464C493.4278961343765,268.26730692863464,492.6738961343765,269.42630692863463,492.6738961343765,270.3763069286346C492.6738961343765,270.70830692863467,491.85389613437655,272.69030692863464,490.8518961343765,274.7823069286346C486.2088961343765,284.47430692863463,481.57989613437655,288.68430692863467,475.08489613437655,289.12030692863465L472.5438961343765,289.29130692863464L474.49389613437654,288.72530692863467C479.34489613437654,287.31730692863465,483.18589613437655,284.72330692863466,484.4608961343765,281.99530692863465C484.9368961343765,280.97630692863464,485.57489613437656,279.8643069286346,485.87889613437653,279.52230692863463C486.6308961343765,278.67630692863463,488.7648961343765,274.47630692863464,488.7648961343765,273.84130692863465C488.7648961343765,273.55930692863467,488.94089613437654,273.3283069286346,489.1558961343765,273.3283069286346C489.3708961343765,273.3283069286346,489.54689613437654,273.07530692863463,489.54689613437654,272.76530692863463C489.54689613437654,272.45630692863466,490.26289613437655,270.8353069286346,491.13789613437655,269.16330692863465C492.68189613437653,266.21430692863464,492.7228961343765,266.03830692863465,492.5238961343765,263.20430692863465C492.2158961343765,258.82230692863465,492.2808961343765,253.57630692863464,492.66689613437654,251.76730692863464C493.7998961343765,246.45130692863464,497.14089613437653,234.62330692863463,497.7408961343765,233.80530692863465C497.89789613437654,233.59130692863465,498.30689613437653,232.54030692863464,498.6508961343765,231.46930692863464C499.2018961343765,229.74830692863463,501.8508961343765,223.89830692863464,502.7938961343765,222.31830692863466C502.9848961343765,221.99730692863466,504.4058961343765,219.21630692863465,505.95089613437653,216.13930692863465C508.7928961343765,210.47930692863466,512.8398961343765,203.56030692863465,514.9778961343766,200.70730692863464C515.6198961343765,199.85030692863464,516.8438961343766,198.15230692863463,517.6978961343765,196.93330692863464C519.5718961343765,194.25930692863466,520.7348961343765,193.34030692863465,521.4738961343766,193.95130692863464C522.3868961343765,194.70730692863464,522.0438961343765,195.52930692863464,518.9078961343765,200.10530692863463C517.2128961343765,202.57830692863465,515.2508961343765,205.56530692863464,514.5468961343765,206.74230692863463C512.6158961343765,209.97530692863464,508.6988961343765,216.97630692863464,508.6988961343765,217.19730692863465C508.6988961343765,217.30530692863465,508.0048961343765,218.73630692863463,507.1558961343765,220.37830692863466C497.98889613437655,238.11730692863463,492.1308961343765,263.75030692863464,496.24189613437653,268.1433069286346C497.78189613437655,269.78830692863465,498.1458961343765,270.7293069286346,498.1458961343765,273.05930692863467C498.1458961343765,274.22430692863463,498.40989613437654,275.92330692863464,498.7318961343765,276.83330692863467C499.0548961343765,277.74430692863467,499.31889613437653,279.0083069286346,499.31889613437653,279.64430692863465C499.31889613437653,280.27930692863464,499.66989613437653,281.24430692863467,500.09989613437654,281.78930692863463C500.62389613437654,282.4533069286346,500.88289613437655,283.3713069286346,500.8838961343765,284.57630692863466C500.88589613437654,285.56530692863464,501.12289613437656,286.82430692863466,501.4108961343765,287.37430692863467C501.6988961343765,287.9243069286346,502.05889613437654,289.32630692863466,502.20989613437655,290.4893069286346C502.3608961343765,291.65230692863463,502.91989613437653,293.69530692863464,503.4518961343765,295.02930692863464C504.0428961343765,296.5133069286346,504.3268961343765,297.81930692863466,504.1828961343765,298.39230692863464C504.03489613437654,298.98030692863466,504.26089613437654,299.9413069286346,504.7928961343765,300.98030692863466C505.25789613437655,301.88930692863465,505.73389613437655,303.61730692863466,505.8508961343765,304.82230692863465C505.96789613437653,306.02630692863465,506.41489613437653,307.59530692863467,506.8468961343765,308.30930692863467C507.43389613437654,309.28130692863465,507.6558961343765,310.42330692863464,507.72989613437653,312.85030692863467C507.78489613437654,314.63430692863466,507.96989613437654,316.32130692863467,508.14289613437654,316.60030692863467C508.5298961343765,317.22330692863466,508.3898961343765,319.74030692863465,507.94489613437656,320.18530692863465C507.7648961343765,320.3643069286346,507.1448961343765,318.48230692863467,506.56589613437654,316.00330692863463ZM377.3850961343765,292.19530692863464C377.39989613437655,289.42130692863464,377.56889613437653,285.83830692863467,377.7722961343765,284.23230692863467C377.97579613437654,282.62530692863464,378.4027961343765,278.68330692863464,378.7210961343765,275.47030692863467C382.36839613437655,238.65330692863463,393.7607961343765,198.67130692863464,408.9554961343765,169.36130692863463L414.30479613437655,159.04230692863464L414.2899961343765,152.03330692863463C414.2559961343765,128.78930692863463,400.3170961343765,102.79330692863465,378.8474961343765,85.93680692863464C367.5262361343765,77.04820692863464,358.2116625503765,68.25020692863464,358.2108961343765,66.44470692863464C358.2108961343765,59.298106928634645,373.7922961343765,57.63660692863464,400.8150961343765,61.90200692863464C410.6839961343765,63.459906928634645,423.50229613437654,66.04980692863464,429.92139613437655,67.78280692863464C447.12709613437653,72.42820692863464,459.21289613437654,76.59040692863465,468.2858961343765,80.99560692863464C473.2168961343765,83.38930692863464,472.76089613437654,83.46510692863464,476.2518961343765,79.67370692863464C493.68889613437653,60.741806928634645,536.1108961343765,31.527206928634644,560.4838961343766,21.666006928634644C596.4648961343765,7.109076928634644,632.4198961343766,-0.6124330713653565,648.2338961343766,2.8218259286346434C658.8538961343766,5.128216928634643,663.6418961343766,7.259626928634644,675.3988961343765,14.914706928634644C683.5238961343765,20.205106928634642,689.3838961343765,23.193106928634645,698.0388961343765,26.459206928634643C708.9278961343765,30.568206928634645,712.4598961343765,33.78980692863465,713.3428961343766,40.419706928634646C714.1858961343765,46.749306928634645,710.3108961343765,50.45300692863464,696.4848961343765,56.534606928634645C687.3068961343765,60.57180692863464,677.9108961343766,64.81130692863465,676.0018961343765,65.77640692863464C667.4438961343765,70.10320692863465,640.1478961343765,82.99190692863465,638.4618961343765,83.50210692863465C637.9238961343765,83.66480692863465,636.8688961343765,84.27030692863464,636.1168961343765,84.84770692863465C635.3638961343765,85.42510692863465,633.6928961343765,86.48830692863464,632.4038961343765,87.21050692863464C627.9538961343765,89.70120692863465,610.1428961343765,101.33490692863464,609.7098961343765,102.03230692863464C609.5698961343766,102.25830692863464,608.2868961343765,103.22230692863464,606.8588961343766,104.17530692863464C602.8098961343765,106.87630692863465,598.7948961343766,109.92530692863464,596.1708961343766,112.29130692863464C593.5488961343765,114.65430692863464,591.6238961343765,115.06430692863465,587.9368961343765,114.04430692863464C584.1258961343765,112.99030692863464,566.2948961343766,129.40030692863465,559.7018961343765,140.02930692863464C559.2718961343766,140.72230692863465,558.2408961343765,142.27830692863463,557.4088961343765,143.48530692863466C550.1988961343766,153.96130692863466,547.1188961343765,165.83830692863464,549.5448961343766,173.80530692863465C550.2008961343765,175.96030692863465,550.1078961343765,176.43230692863463,549.2868961343765,175.11630692863466C546.5728961343765,170.76530692863463,546.4448961343766,158.87930692863463,549.0578961343765,153.90130692863465C553.2638961343765,145.89230692863464,554.2448961343765,144.12630692863465,554.8678961343766,143.44030692863464C555.2698961343765,142.99830692863463,555.5978961343765,142.42530692863465,555.5978961343765,142.16730692863464C555.5978961343765,141.10230692863465,560.0108961343765,135.21130692863466,562.7288961343766,132.64730692863463C563.5878961343765,131.83730692863463,565.0168961343766,130.08230692863464,565.9048961343765,128.74730692863466C569.3548961343765,123.56030692863465,577.8188961343765,115.27530692863465,580.0078961343766,114.94230692863465C580.4328961343765,114.87830692863464,581.1498961343765,114.47930692863464,581.6018961343765,114.05630692863464C582.0538961343765,113.63430692863464,582.6748961343765,113.28230692863464,582.9838961343766,113.27530692863465C583.2928961343765,113.27530692863465,583.8868961343765,113.00630692863464,584.3038961343765,112.69130692863465C585.1878961343765,112.02530692863465,587.6128961343766,111.95130692863464,589.6958961343765,112.52830692863465C591.3738961343765,112.99230692863465,592.0698961343766,112.72530692863464,594.4618961343765,110.69630692863464C595.3068961343765,109.98030692863465,596.1368961343765,109.39430692863465,596.3068961343765,109.39430692863465C597.1288961343765,109.39430692863465,600.9388961343766,107.36230692863464,600.9388961343766,106.92430692863465C600.9388961343766,106.22730692863465,602.8908961343766,104.47930692863464,604.0658961343765,104.12530692863464C605.5578961343765,103.67530692863464,606.8388961343765,102.72830692863464,607.1868961343765,101.81670692863464C607.3588961343766,101.36470692863465,608.1788961343765,100.65040692863464,609.0078961343766,100.22960692863464C609.8368961343765,99.80890692863464,610.5838961343766,99.30150692863464,610.6688961343765,99.10210692863464C610.9938961343765,98.33460692863464,612.9498961343766,96.80330692863464,615.0098961343765,95.70200692863465C616.1918961343765,95.07000692863464,618.4788961343766,93.60260692863464,620.0908961343765,92.44090692863465C622.5868961343765,90.64330692863464,624.7128961343765,89.25600692863465,627.5178961343765,87.59530692863464C629.0738961343766,86.67370692863464,635.0738961343766,84.19880692863464,636.3708961343766,83.94300692863465C636.6188961343765,83.89440692863464,637.5418961343765,83.20490692863464,638.4238961343765,82.41120692863464C639.3058961343766,81.61750692863464,640.3828961343766,80.96830692863465,640.8168961343765,80.96830692863465C641.2788961343765,80.96830692863465,641.7898961343765,80.56510692863465,642.0508961343764,79.99450692863465C642.3028961343765,79.44340692863464,642.8248961343766,79.02120692863464,643.2538961343765,79.02120692863464C643.9868961343766,79.02120692863464,645.1558961343765,78.58530692863464,648.4288961343766,77.09020692863464C649.2888961343765,76.69750692863464,650.2558961343766,76.26820692863464,650.5788961343765,76.13590692863464C650.9008961343766,76.00330692863464,652.0448961343766,75.36630692863464,653.1188961343765,74.71950692863464C654.1938961343765,74.07280692863465,655.5128961343765,73.35520692863464,656.0508961343764,73.12560692863464C656.5878961343765,72.89610692863464,657.2918961343765,72.55330692863464,657.6138961343765,72.36390692863465C658.2268961343766,72.00500692863464,660.3768961343765,70.76640692863464,661.7178961343766,69.99970692863464C662.1488961343765,69.75390692863465,662.7638961343765,69.40180692863464,663.0868961343765,69.21710692863465C663.4088961343765,69.03240692863464,664.2878961343765,68.61780692863465,665.0408961343765,68.29550692863464C665.7928961343765,67.97320692863464,666.6728961343765,67.53950692863464,666.9948961343765,67.33180692863465C667.3178961343765,67.12380692863465,668.2848961343766,66.65630692863465,669.1448961343765,66.29240692863465C670.0048961343765,65.92870692863465,671.8098961343765,65.05170692863464,673.1568961343766,64.34350692863464C674.5038961343765,63.63530692863464,675.8838961343765,63.05570692863464,676.2238961343764,63.05570692863464C676.5628961343765,63.05570692863464,677.3078961343765,62.74170692863464,677.8788961343765,62.35790692863464C678.4498961343766,61.97420692863464,679.6198961343765,61.31700692863464,680.4798961343765,60.89770692863464C681.3398961343765,60.47840692863464,682.4628961343765,59.82880692863464,682.9758961343765,59.453706928634645C683.4878961343766,59.078906928634645,684.3838961343765,58.772406928634645,684.9668961343765,58.772406928634645C685.5498961343765,58.772406928634645,686.3448961343765,58.42210692863464,686.7338961343766,57.99380692863464C687.1228961343766,57.56550692863464,687.7418961343765,57.214806928634644,688.1098961343765,57.214806928634644C688.4768961343766,57.214806928634644,689.1978961343766,56.89000692863464,689.7098961343765,56.49260692863464C690.2228961343765,56.095206928634646,691.2748961343766,55.56490692863464,692.0478961343765,55.314106928634644C692.8218961343765,55.062906928634646,694.2768961343766,54.33780692863464,695.2818961343766,53.702606928634644C696.5348961343766,52.910706928634646,697.6718961343765,52.52660692863464,698.8968961343764,52.480206928634644C699.9378961343765,52.44030692863464,700.7638961343765,52.203906928634645,700.8768961343765,51.912206928634646C700.9828961343765,51.63660692863464,701.6558961343765,51.218706928634646,702.3718961343766,50.98340692863464C703.0878961343765,50.748006928634645,703.8858961343765,50.30140692863464,704.1438961343765,49.990906928634644C704.4018961343766,49.68050692863464,704.9228961343765,49.42680692863464,705.2998961343765,49.42680692863464C705.6768961343765,49.42680692863464,706.2198961343765,49.145906928634645,706.5058961343766,48.802406928634646C706.7928961343765,48.45890692863464,707.3928961343765,48.03880692863464,707.8408961343765,47.86920692863465C710.8408961343765,46.73270692863464,712.1318961343766,40.71510692863465,710.1378961343765,37.16120692863464C708.2148961343765,33.73520692863464,703.3008961343764,29.568306928634644,701.1828961343765,29.568306928634644C700.9338961343765,29.568306928634644,700.4118961343765,29.217606928634645,700.0228961343765,28.789306928634645C699.6338961343765,28.361006928634644,699.0158961343766,28.010306928634645,698.6488961343765,28.010306928634645C698.2828961343765,28.010306928634645,696.4598961343765,27.309306928634644,694.5988961343764,26.452706928634644C692.7378961343766,25.596106928634644,690.9588961343766,24.895106928634643,690.6468961343764,24.895106928634643C690.3348961343765,24.895106928634643,689.4538961343765,24.544506928634643,688.6878961343765,24.116206928634643C687.9228961343765,23.687906928634643,686.8448961343765,23.337206928634643,686.2938961343766,23.337206928634643C685.1408961343766,23.337206928634643,681.9398961343766,21.666806928634642,678.8028961343765,19.429406928634645C677.6128961343766,18.580306928634645,676.4888961343765,17.885806928634643,676.3048961343766,17.885806928634643C676.1208961343766,17.885806928634643,674.9618961343765,17.097506928634644,673.7298961343765,16.13380692863464C672.4978961343766,15.170106928634643,671.2698961343765,14.381806928634644,671.0018961343765,14.381406928634643C670.7328961343765,14.381406928634643,670.5128961343765,14.208306928634643,670.5128961343765,13.996606928634643C670.5128961343765,13.501106928634643,668.2158961343765,12.062506928634644,664.5908961343765,10.287506928634643C663.0108961343765,9.513916928634643,661.4128961343765,8.716616928634643,661.0398961343765,8.516126928634645C660.6658961343765,8.315276928634644,660.1388961343765,8.151426928634644,659.8668961343765,8.152146928634643C659.5958961343765,8.152866928634644,658.3178961343765,7.728886928634644,657.0278961343765,7.210406928634644C649.7348961343765,4.278816928634644,638.4458961343765,2.9889039286346435,631.3308961343765,4.274146928634643C630.0478961343765,4.506256928634643,627.4768961343766,4.699206928634643,625.6188961343765,4.702796928634644C623.3778961343764,4.702796928634644,622.0438961343766,4.883526928634644,621.6548961343765,5.226306928634644C621.3318961343765,5.510166928634644,619.4178961343765,5.940256928634644,617.3998961343766,6.182426928634643C615.3828961343766,6.4242369286346435,613.3598961343765,6.821276928634644,612.9048961343765,7.064526928634644C612.4508961343765,7.3077769286346435,611.1108961343765,7.733556928634644,609.9288961343765,8.010216928634645C603.7518961343765,9.455716928634644,601.3628961343766,10.060426928634644,599.7658961343766,10.582136928634643C598.7988961343765,10.897976928634643,596.8638961343765,11.466036928634644,595.4668961343765,11.844386928634643C594.0688961343765,12.222406928634644,592.0458961343766,12.845106928634644,590.9718961343765,13.228106928634643C589.8968961343766,13.610706928634643,587.9618961343765,14.226906928634644,586.6718961343765,14.597406928634644C585.3818961343766,14.967806928634644,583.4468961343765,15.584406928634644,582.3728961343766,15.967806928634644C581.2978961343765,16.351206928634646,579.9788961343766,16.783806928634643,579.4408961343765,16.929706928634644C578.5068961343766,17.183006928634644,573.1188961343765,19.334506928634642,570.6468961343766,20.441206928634642C570.0018961343765,20.730006928634644,567.9788961343766,21.480606928634643,566.1518961343766,22.109106928634645C562.3788961343765,23.406906928634644,557.2698961343765,25.626306928634644,551.3418961343765,28.543206928634643C549.1078961343765,29.642306928634643,546.8208961343765,30.766606928634644,546.2598961343765,31.041406928634643C545.6988961343766,31.316706928634645,544.8008961343766,31.789206928634645,544.2628961343765,32.091306928634644C543.7258961343765,32.39350692863464,541.6148961343765,33.47540692863464,539.5728961343765,34.49550692863464C537.5308961343765,35.51550692863464,535.1238961343765,36.83890692863464,534.2258961343765,37.43670692863464C533.3268961343765,38.034606928634645,532.4478961343765,38.52870692863464,532.2708961343765,38.534806928634644C532.0948961343765,38.534806928634644,531.2598961343765,39.06620692863464,530.4148961343765,39.70290692863465C529.5708961343765,40.339606928634645,528.5698961343766,40.860206928634646,528.1908961343765,40.860206928634646C527.8118961343765,40.860206928634646,527.3828961343766,41.05250692863464,527.2368961343766,41.287406928634645C527.0908961343765,41.522406928634645,525.8058961343766,42.489006928634645,524.3798961343765,43.435706928634644C520.1518961343766,46.24270692863465,517.9618961343765,47.813506928634645,516.5118961343765,49.078306928634646C515.7588961343765,49.73440692863464,514.3078961343765,50.630506928634645,513.2868961343765,51.06920692863464C512.2658961343766,51.50790692863465,511.4298961343765,52.012806928634646,511.4298961343765,52.19100692863464C511.4298961343765,52.36920692863465,510.1548961343765,53.33250692863464,508.5968961343765,54.332106928634644C507.0378961343765,55.331706928634645,505.14689613437656,56.715706928634646,504.3948961343765,57.408106928634645C503.64189613437657,58.100506928634644,502.3748961343765,59.09610692863464,501.5768961343765,59.62070692863465C500.7798961343765,60.145306928634646,499.16189613437655,61.470406928634645,497.9808961343765,62.565606928634644C496.7988961343765,63.66080692863464,494.05089613437656,65.90070692863463,491.87389613437654,67.54350692863464C489.6968961343765,69.18620692863465,486.48389613437655,71.93890692863464,484.7348961343765,73.66030692863464C480.3128961343765,78.01370692863465,476.0258961343765,81.71450692863465,473.67689613437653,83.20820692863464C472.49789613437656,83.95770692863465,470.72989613437653,85.70250692863465,469.3358961343765,87.49070692863464C468.0428961343765,89.15040692863464,465.0858961343765,92.52320692863465,462.76589613437653,94.98630692863465C460.44589613437654,97.44930692863464,457.13109613437655,101.04130692863464,455.3999961343765,102.96830692863465C453.66909613437656,104.89630692863464,452.02919613437655,106.64830692863464,451.75589613437654,106.86330692863464C451.48259613437654,107.07730692863464,450.77039613437654,107.88630692863464,450.1730961343765,108.66130692863464C449.57579613437656,109.43630692863465,448.11049613437655,111.27630692863464,446.9169961343765,112.75030692863464C439.5795961343765,121.80930692863464,429.67819613437655,136.13530692863463,423.4147961343765,146.75430692863463C422.33449613437654,148.58630692863466,420.9849961343765,150.68930692863464,420.4158961343765,151.42730692863464C419.2213961343765,152.97630692863464,417.20899613437655,156.55630692863465,413.5093961343765,163.71430692863464C408.8952961343765,172.64030692863463,404.3329961343765,181.91230692863465,404.3329961343765,182.36330692863464C404.3329961343765,182.49830692863463,403.54139613437655,184.22030692863464,402.57409613437653,186.18830692863463C401.6065961343765,188.15730692863465,400.8150961343765,190.05830692863464,400.8150961343765,190.41330692863465C400.8150961343765,190.76830692863464,400.3143961343765,192.17730692863464,399.7023961343765,193.54530692863463C398.4008961343765,196.45530692863466,392.26929613437653,215.16530692863464,391.0390961343765,219.98130692863464C390.57409613437653,221.80130692863463,389.85709613437655,224.22630692863464,389.44589613437654,225.37030692863465C389.0347961343765,226.51330692863465,388.69839613437654,227.86530692863465,388.69839613437654,228.37330692863463C388.69839613437654,228.88130692863464,388.36279613437654,230.22330692863466,387.95309613437655,231.35630692863464C387.5430961343765,232.48830692863464,387.0926961343765,234.11630692863466,386.9520961343765,234.97230692863465C386.8116961343765,235.82930692863465,386.4541961343765,237.40630692863465,386.15829613437654,238.47730692863465C384.09399613437654,245.94730692863465,383.3008961343765,249.80130692863463,382.03489613437654,258.5133069286346C381.6162961343765,261.3953069286346,381.1839961343765,264.03430692863463,381.07449613437655,264.37730692863465C380.9651961343765,264.72130692863465,380.6119961343765,267.09430692863464,380.2899961343765,269.65230692863463C379.96789613437653,272.20930692863465,379.5363961343765,275.24430692863467,379.3309961343765,276.39730692863463C379.12569613437654,277.5493069286346,378.9335961343765,281.49230692863466,378.9043961343765,285.15830692863466C378.8526961343765,291.69730692863465,378.39989613437655,296.1333069286346,377.71059613437654,296.86730692863466C377.5066961343765,297.08430692863465,377.37019613437656,295.15330692863466,377.3803961343765,292.19430692863466L377.3850961343765,292.19530692863464ZM420.12929613437655,145.12130692863465C421.3300961343765,143.35430692863466,423.2897961343765,140.50730692863465,424.48419613437653,138.79330692863465C425.6785961343765,137.08030692863466,427.6164961343765,134.10130692863464,428.79049613437655,132.17430692863465C429.96469613437654,130.24630692863465,431.59169613437655,127.61830692863464,432.40629613437653,126.33330692863464C434.8798961343765,122.43130692863464,441.95019613437654,113.35830692863465,446.2133961343765,108.61530692863464C448.4271961343765,106.15230692863464,450.50819613437653,103.78930692863464,450.83769613437653,103.36230692863464C451.1674961343765,102.93730692863464,455.43859613437655,98.53730692863465,460.3288961343765,93.58570692863465C469.4828961343765,84.31910692863464,469.91189613437655,83.74280692863465,468.23389613437655,82.98110692863465C467.6898961343765,82.73460692863465,467.1438961343765,82.26820692863464,467.0188961343765,81.94520692863465C466.89089613437653,81.61280692863464,466.3118961343765,81.35770692863464,465.6848961343765,81.35770692863464C465.07589613437653,81.35770692863464,464.4728961343765,81.18990692863464,464.3458961343765,80.98510692863465C464.2188961343765,80.78030692863464,463.85889613437655,80.71100692863465,463.54489613437653,80.83100692863465C463.2258961343765,80.95320692863464,462.8678961343765,80.77350692863465,462.73389613437655,80.42460692863465C462.6008961343765,80.08110692863464,462.2458961343765,79.80010692863465,461.9428961343765,79.80010692863465C461.02689613437656,79.80010692863465,458.27689613437656,78.85270692863465,458.27689613437656,78.53720692863465C458.27689613437656,78.37510692863464,457.93589613437655,78.24250692863464,457.5186961343765,78.24250692863464C457.1012961343765,78.24250692863464,456.6511961343765,78.06720692863465,456.51839613437653,77.85310692863465C456.3853961343765,77.63890692863464,455.95699613437654,77.46360692863465,455.5659961343765,77.46360692863465C455.17509613437653,77.46360692863465,454.62609613437655,77.18870692863464,454.3459961343765,76.85240692863465C454.0660961343765,76.51610692863464,453.51289613437655,76.32560692863464,453.11689613437653,76.42880692863464C452.41259613437654,76.61240692863464,450.2720961343765,75.76940692863464,449.89379613437654,75.15970692863465C449.7888961343765,74.99050692863464,448.98659613437655,74.92360692863464,448.11099613437653,75.01060692863464C446.8365961343765,75.13710692863464,446.2853961343765,74.97390692863465,445.3476961343765,74.18740692863464C444.47129613437653,73.45260692863464,443.8963961343765,73.26150692863465,443.06389613437653,73.42710692863464C442.4192961343765,73.55500692863464,441.3981961343765,73.39190692863464,440.63589613437654,73.03870692863464C439.91229613437656,72.70310692863464,438.52869613437656,72.23530692863464,437.56139613437654,71.99850692863464C436.5940961343765,71.76210692863464,435.4040961343765,71.47210692863464,434.91729613437656,71.35430692863464C434.4303961343765,71.23640692863465,433.9362961343765,70.98560692863464,433.81929613437654,70.79700692863464C433.7025961343765,70.60830692863465,433.12119613437653,70.45420692863465,432.5279961343765,70.45420692863465C431.93479613437654,70.45420692863465,430.4939961343765,70.16780692863465,429.3263961343765,69.81750692863464C426.17619613437654,68.87250692863465,421.28739613437654,67.74180692863465,418.4088961343765,67.29190692863465C417.01149613437656,67.07380692863464,415.0983961343765,66.55680692863464,414.15739613437654,66.14360692863464C413.07929613437653,65.67000692863465,411.56139613437654,65.39120692863465,410.0532961343765,65.38980692863464C408.73709613437654,65.38830692863465,407.18949613437655,65.14290692863464,406.6141961343765,64.84360692863464C406.0388961343765,64.54470692863464,403.98079613437653,64.21090692863464,402.04049613437655,64.10200692863464C400.1001961343765,63.993106928634646,398.31819613437654,63.784406928634645,398.0804961343765,63.637806928634646C396.8522961343765,62.88140692863465,385.7487961343765,62.498406928634644,382.6302961343765,63.104606928634645C381.5736961343765,63.30970692863465,380.5406961343765,63.23720692863464,379.5032961343765,62.881806928634646C378.3048961343765,62.47220692863464,377.13949613437654,62.43410692863464,374.35419613437654,62.714006928634646C370.6746961343765,63.08370692863464,365.9692361343765,63.41290692863464,363.89838613437655,63.44520692863464C360.59192613437654,63.49660692863464,359.99862613437654,66.72820692863465,362.8081361343765,69.38280692863465C371.1801961343765,77.29250692863464,374.0084961343765,79.79910692863464,374.5621961343765,79.79910692863464C374.79419613437653,79.79910692863464,375.12459613437653,80.02110692863464,375.2965961343765,80.29240692863465C375.4683961343765,80.56370692863464,376.2247961343765,81.28300692863465,376.97709613437655,81.89090692863465C377.7294961343765,82.49890692863464,379.4004961343765,83.93220692863464,380.6902961343765,85.07620692863465C381.98029613437654,86.21990692863464,384.70649613437655,88.60960692863465,386.7487961343765,90.38680692863464C388.79099613437654,92.16390692863465,390.81359613437655,94.05670692863464,391.24319613437655,94.59350692863464C391.67279613437654,95.13030692863464,393.1678961343765,96.88560692863464,394.5655961343765,98.49420692863464C395.96329613437655,100.10280692863465,397.41169613437654,101.96470692863464,397.78439613437655,102.63230692863465C398.1570961343765,103.30030692863464,398.9486961343765,104.36530692863464,399.54329613437653,105.00030692863464C400.13789613437655,105.63530692863465,400.88069613437654,106.66430692863464,401.19389613437653,107.28730692863465C401.5071961343765,107.91030692863464,401.97079613437654,108.68230692863465,402.2244961343765,109.00430692863465C402.47799613437655,109.32530692863465,403.24009613437653,110.63330692863464,403.9179961343765,111.91030692863464C404.59579613437654,113.18830692863465,405.41669613437654,114.52630692863464,405.7421961343765,114.88430692863464C406.0675961343765,115.24330692863464,406.69179613437655,116.47530692863464,407.12929613437655,117.62430692863464C407.56679613437655,118.77230692863465,408.0678961343765,119.88730692863464,408.2428961343765,120.10130692863464C408.7783961343765,120.75730692863465,411.7638961343765,128.13330692863462,411.7679961343765,128.81030692863465C411.76949613437654,129.16030692863464,412.18589613437655,130.33230692863464,412.6920961343765,131.41530692863464C413.2906961343765,132.69630692863464,413.6305961343765,134.17930692863465,413.66489613437653,135.65830692863463C413.6943961343765,136.90930692863463,413.8737961343765,138.12630692863465,414.0648961343765,138.36230692863464C414.4052961343765,138.78330692863463,414.6984961343765,140.37430692863464,415.1443961343765,144.22030692863464C415.3700961343765,146.16630692863464,416.59489613437654,148.33230692863464,417.4692961343765,148.33230692863464C417.7315961343765,148.33230692863464,418.9285961343765,146.88630692863464,420.12929613437655,145.12130692863465L420.12929613437655,145.12130692863465ZM555.4068961343766,229.19530692863464C555.0198961343765,227.75430692863463,555.3918961343766,224.14330692863464,556.1578961343765,221.92830692863464L556.7628961343765,220.17630692863463L556.5918961343765,224.07030692863464C556.4968961343766,226.21130692863466,556.2598961343765,228.49030692863465,556.0628961343765,229.13230692863465L555.7038961343765,230.30030692863465L555.4068961343766,229.19530692863464ZM555.8168961343765,197.67130692863464C555.6468961343766,196.64430692863465,555.6068961343765,195.70630692863463,555.7268961343765,195.58730692863463C556.0298961343765,195.28530692863464,556.4938961343765,197.94030692863464,556.2908961343766,198.81830692863466C556.1998961343766,199.21430692863464,555.9858961343765,198.69730692863465,555.8168961343765,197.67130692863464ZM554.0578961343765,188.70030692863463C553.7728961343765,187.68930692863464,553.6418961343766,186.76130692863464,553.7638961343765,186.63830692863465C554.0468961343765,186.35730692863464,554.9178961343765,189.51430692863465,554.7208961343765,190.10330692863465C554.6408961343766,190.34330692863463,554.3418961343765,189.71230692863463,554.0578961343765,188.70030692863463ZM552.1978961343765,183.02130692863463C551.7228961343765,182.04030692863464,551.1418961343766,180.48130692863464,550.9058961343765,179.55830692863464C550.6708961343766,178.63430692863466,550.3878961343765,177.58330692863464,550.2778961343765,177.22130692863465C549.8288961343765,175.75430692863463,551.3468961343765,178.69030692863464,552.2978961343765,181.13030692863464C553.5068961343766,184.23230692863464,553.4358961343765,185.57730692863464,552.1978961343765,183.02130692863463L552.1978961343765,183.02130692863463ZM532.6228961343766,116.77430692863464C532.1298961343765,116.57730692863464,529.8428961343766,116.43030692863465,527.5418961343765,116.44930692863464C525.2398961343765,116.46630692863464,522.8288961343765,116.31530692863464,522.1838961343765,116.10930692863464C521.3248961343766,115.83630692863464,521.9528961343765,115.78630692863464,524.5288961343765,115.92230692863464C540.8178961343765,116.78430692863465,571.4498961343766,102.48030692863465,578.8278961343765,90.56680692863465C585.6938961343765,79.48140692863464,584.7178961343766,68.46870692863465,576.5138961343765,64.43440692863464C567.6358961343765,60.068406928634644,555.2168961343765,64.57700692863465,536.8748961343765,78.82680692863464C524.0438961343765,88.79500692863465,515.1658961343766,100.56810692863465,514.6608961343766,108.28430692863465L514.4658961343765,111.26230692863464L515.9858961343765,112.71330692863464C516.8218961343765,113.51230692863464,518.2948961343766,114.48430692863464,519.2578961343766,114.87330692863465C520.3948961343765,115.33230692863464,520.7188961343766,115.58830692863464,520.1798961343766,115.60230692863465C517.0848961343765,115.68330692863465,512.6078961343765,111.54930692863465,512.6078961343765,108.60930692863464C512.6078961343765,105.06630692863465,515.2618961343765,99.08310692863465,518.1778961343765,96.05560692863465C518.9838961343766,95.21840692863465,519.6428961343765,94.27630692863464,519.6428961343765,93.96190692863465C519.6428961343765,92.79880692863465,522.9938961343765,87.72000692863465,524.0678961343765,87.25430692863465C524.2438961343765,87.17780692863464,525.4758961343765,86.00750692863464,526.8038961343765,84.65370692863465C529.2828961343765,82.12700692863464,532.2248961343765,79.95860692863464,534.3818961343766,79.06860692863464C535.0868961343765,78.77760692863464,535.8008961343766,78.08660692863464,536.0738961343766,77.43020692863465C536.3328961343766,76.80600692863464,536.7228961343765,76.29550692863464,536.9388961343766,76.29550692863464C537.1558961343765,76.29550692863464,538.0228961343765,75.67420692863465,538.8668961343765,74.91460692863464C539.7108961343765,74.15510692863464,540.8758961343765,73.32650692863464,541.4548961343766,73.07280692863465C542.0348961343766,72.81920692863464,542.5968961343765,72.51990692863464,542.7038961343765,72.40700692863464C543.3978961343765,71.67980692863465,545.7948961343766,70.12830692863464,546.6128961343766,69.87640692863464C548.2508961343765,69.37270692863464,550.6358961343765,68.07810692863464,552.2298961343765,66.82840692863465C553.0618961343765,66.17630692863465,554.1618961343765,65.62440692863464,554.6738961343765,65.60180692863464C555.1868961343765,65.57980692863464,555.8688961343765,65.18680692863464,556.1908961343765,64.72860692863463C556.5128961343765,64.27090692863464,557.3478961343765,63.77760692863465,558.0458961343766,63.632406928634644C558.7448961343765,63.48650692863465,559.7558961343765,63.08370692863464,560.2928961343765,62.735606928634645C560.8308961343765,62.38740692863465,562.0868961343765,62.09780692863465,563.0858961343765,62.092406928634645C564.3238961343766,62.092406928634645,565.1688961343765,61.84160692863465,565.7408961343765,61.32600692863464C566.9118961343765,60.269606928634644,569.8288961343765,60.321406928634644,571.6288961343765,61.430606928634646C572.3808961343765,61.894406928634645,573.2778961343765,62.27420692863464,573.6218961343766,62.27530692863464C573.9658961343765,62.276006928634644,575.0748961343766,62.71470692863464,576.0858961343765,63.250106928634644C577.0968961343765,63.785506928634646,578.0848961343765,64.22380692863464,578.2828961343765,64.22380692863464C580.1948961343766,64.22380692863464,584.1358961343765,69.20560692863464,584.1358961343765,71.62340692863464C584.1358961343765,72.03980692863465,584.5268961343766,73.18100692863464,585.0038961343765,74.15940692863464L585.8708961343765,75.93870692863464L585.1308961343765,77.96660692863465C584.7238961343766,79.08190692863464,584.2638961343765,81.01240692863465,584.1078961343765,82.25640692863465C583.9518961343765,83.50030692863464,583.5428961343765,84.82830692863465,583.1988961343766,85.20740692863464C582.8548961343765,85.58680692863464,582.5728961343765,86.19510692863464,582.5728961343765,86.55980692863464C582.5728961343765,86.92450692863464,582.3248961343766,87.31760692863465,582.0218961343766,87.43330692863465C581.7188961343766,87.54970692863465,581.2578961343766,88.15690692863464,580.9978961343766,88.78390692863465C580.7368961343766,89.41130692863464,580.3848961343765,89.92430692863465,580.2148961343765,89.92430692863465C579.8918961343766,89.92430692863465,578.5318961343766,92.60080692863464,578.0878961343765,94.11030692863464C577.9458961343765,94.59210692863465,577.5778961343765,94.98630692863465,577.2698961343765,94.98630692863465C576.9618961343765,94.98630692863465,576.7098961343765,95.22340692863465,576.7098961343765,95.51340692863464C576.7098961343765,95.80330692863464,576.3138961343766,96.48350692863464,575.8298961343766,97.02460692863464C575.3468961343765,97.56610692863464,574.4368961343765,98.64290692863464,573.8078961343765,99.41800692863464C573.1788961343765,100.19300692863465,572.5068961343766,100.82720692863464,572.3148961343766,100.82720692863464C572.1218961343766,100.82720692863464,571.1408961343766,101.49370692863464,570.1348961343765,102.30830692863465C568.3098961343765,103.78630692863464,567.1038961343766,104.46330692863464,565.5068961343766,104.90630692863465C565.0428961343765,105.03630692863464,564.3788961343765,105.57230692863465,564.0328961343765,106.09930692863465C563.6858961343765,106.62630692863465,563.2368961343766,107.05730692863465,563.0348961343766,107.05730692863465C562.8328961343766,107.05730692863465,561.3708961343765,107.67130692863465,559.7858961343766,108.42030692863464C558.2008961343765,109.17030692863464,556.5308961343765,109.78330692863464,556.0748961343766,109.78330692863464C555.6188961343765,109.78330692863464,554.3678961343766,110.29930692863465,553.2938961343765,110.93030692863465C552.2198961343765,111.56130692863465,550.6728961343765,112.19730692863465,549.8568961343765,112.34330692863465C549.0398961343765,112.49130692863464,548.1958961343765,112.74530692863465,547.9808961343765,112.90930692863465C547.7658961343766,113.07330692863465,546.7108961343765,113.48030692863465,545.6358961343765,113.81330692863465C544.5608961343765,114.14530692863464,542.9908961343765,114.66830692863465,542.1468961343766,114.97430692863465C541.2948961343766,115.28430692863465,539.9568961343765,115.44330692863464,539.1348961343765,115.33430692863465C537.9368961343765,115.17430692863465,537.4268961343765,115.33430692863465,536.4378961343765,116.15930692863465C535.1708961343766,117.22030692863464,534.1508961343766,117.38530692863465,532.6228961343766,116.77430692863464ZM599.0538961343765,86.94460692863464C599.1398961343765,86.76320692863465,599.4508961343765,86.13440692863465,599.7468961343766,85.54760692863465C600.6558961343765,83.74140692863465,598.8578961343765,80.54030692863465,596.6438961343765,80.02150692863465C594.9928961343766,79.63490692863465,594.5118961343765,80.29920692863465,594.2988961343765,83.26170692863464C594.0648961343766,86.51130692863464,592.5098961343765,86.50880692863464,592.5948961343765,83.26170692863464C592.6838961343765,79.90970692863465,596.4668961343765,78.36000692863465,599.3458961343765,80.49650692863464C600.7878961343765,81.56610692863464,601.0738961343766,86.11780692863465,599.7428961343766,86.82750692863465C599.2788961343765,87.07500692863465,598.9688961343766,87.12930692863465,599.0538961343765,86.94820692863465L599.0538961343765,86.94460692863464Z" fill="#131314" fill-opacity="1" style="mix-blend-mode:passthrough"/></g><g mask="url(#master_svg0_2_249)"><g><g><g><path d="M655.0610293945313,74.00164789697266C657.4309293945313,73.20003389697266,657.4814293945312,73.22123289697265,662.9456293945312,77.31086189697265C665.5059293945312,79.22705189697265,668.0412293945312,81.02035189697266,668.5797293945312,81.29630189697265C669.1180293945313,81.57225189697266,670.5718293945313,82.35877189697266,671.8101293945313,83.04433189697265C677.6132293945312,86.25758189697265,683.8136293945313,88.43138189697265,694.4911293945313,90.99548189697265C707.1969293945313,94.04668189697266,697.8108293945313,101.19578189697265,679.1348293945313,102.69128189697265C663.3603293945313,103.95458189697266,608.1332943945313,107.23358189697265,607.6951293945312,103.26828189697265L629.5684293945312,87.61578189697266L655.0610293945313,74.00164789697266Z" fill="#DD6A5E" fill-opacity="1" style="mix-blend-mode:passthrough"/></g></g><g><path d="M632.2531171064453,79.52617216156005L632.2532551064453,79.52578216156006Q632.4938441064453,79.61076216156006,632.6441341064453,79.66384216156005Q643.1869841064453,83.38760216156005,648.1913841064453,84.96594216156006Q656.4166841064454,87.56013216156006,662.2649841064454,88.63354216156006Q675.9719841064453,91.14935216156006,682.0338841064453,86.20656216156006L682.0340841064453,86.20687216156006Q682.2051841064454,86.06739216156006,682.3974841064453,85.95906216156006Q682.5897841064453,85.85072216156006,682.7976841064453,85.77669216156006Q683.0056841064453,85.70267216156006,683.2231841064453,85.66510216156006Q683.4406841064454,85.62754216156006,683.6613841064453,85.62754216156006Q683.7878841064453,85.62754216156006,683.9137841064453,85.63994216156006Q684.0396841064453,85.65234216156006,684.1636841064453,85.67702216156006Q684.2877841064453,85.70170216156006,684.4088841064453,85.73842216156005Q684.5298841064454,85.77514216156005,684.6467841064454,85.82355216156006Q684.7636841064453,85.87196216156006,684.8751841064453,85.93159216156006Q684.9867841064453,85.99123216156006,685.0919841064454,86.06151216156006Q685.1971841064453,86.13179216156006,685.2948841064454,86.21204216156006Q685.3926841064454,86.29229216156006,685.4821841064453,86.38174216156006Q685.5715841064454,86.47119216156005,685.6518841064453,86.56898216156006Q685.7320841064453,86.66677216156006,685.8023841064453,86.77195216156005Q685.8726841064453,86.87713216156006,685.9322841064453,86.98869216156005Q685.9919841064453,87.10026216156005,686.0403841064453,87.21713216156006Q686.0887841064454,87.33400216156006,686.1254841064454,87.45506216156006Q686.1621841064454,87.57611216156006,686.1868841064453,87.70018216156006Q686.2115841064453,87.82425216156005,686.2239841064453,87.95015216156006Q686.2363841064453,88.07604216156005,686.2363841064453,88.20254216156006Q686.2363841064453,88.48914216156005,686.1733841064453,88.76872216156006Q686.1102841064453,89.04830216156006,685.9873841064453,89.30718216156006Q685.8644841064453,89.56607216156006,685.6875841064453,89.79158216156006Q685.5106841064453,90.01710216156006,685.2885841064453,90.19821216156006L685.2888841064453,90.19853216156005Q677.3826841064454,96.64509216156006,661.3351841064454,93.69969216156005Q655.1723841064453,92.56859216156006,646.6420841064453,89.87823216156006Q641.5540841064453,88.27353216156006,630.9287081064454,84.52061216156005Q630.7867901064453,84.47048216156006,630.5379201064453,84.38259216156005L630.5380551064453,84.38221216156006Q630.3508341064453,84.31609216156006,630.1759641064453,84.22204216156005Q630.0010941064453,84.12800216156006,629.8427141064453,84.00826216156005Q629.6843241064453,83.88852216156006,629.5461741064453,83.74592216156006Q629.4080141064453,83.60331216156005,629.2933541064453,83.44121216156006Q629.1786941064453,83.27912216156005,629.0902341064453,83.10136216156006Q629.0017741064453,82.92359716156005,628.9416241064453,82.73437716156006Q628.8814641064453,82.54515716156006,628.8510241064453,82.34895116156005Q628.8205841064453,82.15274516156006,628.8205841064453,81.95419216156006Q628.8205841064453,81.82769016156006,628.8329841064453,81.70179816156006Q628.8453841064453,81.57590516156006,628.8700641064453,81.45183516156006Q628.8947441064453,81.32776416156005,628.9314641064453,81.20670916156006Q628.9681841064453,81.08565516156006,629.0165941064453,80.96878216156006Q629.0650041064453,80.85191216156007,629.1246341064453,80.74034216156006Q629.1842741064453,80.62878216156005,629.2545541064453,80.52360216156006Q629.3248341064453,80.41841216156006,629.4050841064453,80.32063216156006Q629.4853341064453,80.22284216156005,629.5747841064453,80.13339216156005Q629.6642341064453,80.04394216156005,629.7620241064453,79.96369216156006Q629.8598041064453,79.88344216156005,629.9649941064453,79.81316216156006Q630.0701741064453,79.74288216156006,630.1817341064453,79.68324216156006Q630.2933041064454,79.62361216156006,630.4101741064453,79.57520216156006Q630.5270471064454,79.52679216156005,630.6481011064453,79.49007216156006Q630.7691561064453,79.45335216156006,630.8932271064454,79.42867216156006Q631.0172971064453,79.40399216156005,631.1431901064453,79.39159216156006Q631.2690821064454,79.37919216156006,631.3955841064453,79.37919216156006Q631.8369471064453,79.37919216156006,632.2531171064453,79.52617216156005Z" fill-rule="evenodd" fill="#D34249" fill-opacity="1" style="mix-blend-mode:passthrough"/></g></g></g></g></svg>