<svg xmlns="http://www.w3.org/2000/svg" xmlns:xlink="http://www.w3.org/1999/xlink" fill="none" version="1.1" width="20" height="16.25" viewBox="0 0 20 16.25"><g><path d="M18.75,0L1.25,0C0.560547,0,0,0.558594,0,1.25L0,15C0,15.6895,0.560547,16.25,1.25,16.25L18.75,16.25C19.4395,16.25,20,15.6895,20,15L20,1.25C20,0.558594,19.4395,0,18.75,0ZM17.1875,2.5C17.1875,2.67188,17.1172,2.82812,17.0039,2.94141C16.8906,3.05469,16.7344,3.125,16.5625,3.125C16.2168,3.125,15.9375,2.8457,15.9375,2.5C15.9375,2.32812,16.0078,2.17188,16.1211,2.05859C16.2344,1.94531,16.3906,1.875,16.5625,1.875C16.7344,1.875,16.8906,1.94531,17.0039,2.05859C17.1172,2.17188,17.1875,2.32812,17.1875,2.5ZM14.6875,2.5C14.6875,2.67188,14.6172,2.82812,14.5039,2.94141C14.3906,3.05469,14.2344,3.125,14.0625,3.125C13.7168,3.125,13.4375,2.8457,13.4375,2.5C13.4375,2.32812,13.5078,2.17188,13.6211,2.05859C13.7344,1.94531,13.8906,1.875,14.0625,1.875C14.2344,1.875,14.3906,1.94531,14.5039,2.05859C14.6172,2.17188,14.6875,2.32812,14.6875,2.5ZM11.1211,2.05859C11.2344,1.94531,11.3906,1.875,11.5625,1.875C11.7344,1.875,11.8906,1.94531,12.0039,2.05859C12.1172,2.17188,12.1875,2.32812,12.1875,2.5C12.1875,2.67188,12.1172,2.82812,12.0039,2.94141C11.8906,3.05469,11.7344,3.125,11.5625,3.125C11.2168,3.125,10.9375,2.8457,10.9375,2.5C10.9375,2.32812,11.0078,2.17188,11.1211,2.05859ZM18.75,14.6875C18.75,14.8594,18.6094,15,18.4375,15L1.5625,15C1.39062,15,1.25,14.8594,1.25,14.6875L1.25,5.15625C1.25,5.07031,1.32031,5,1.40625,5L18.5938,5C18.6797,5,18.75,5.07031,18.75,5.15625L18.75,14.6875ZM8.58984,13.1152C8.28516,12.9531,8.16992,12.5742,8.33203,12.2695L10.5664,8.07031C10.7285,7.76562,11.1074,7.65039,11.4121,7.8125C11.7168,7.97461,11.832,8.35352,11.6699,8.6582L9.43359,12.8574C9.27148,13.1621,8.89453,13.2773,8.58984,13.1152ZM6.06445,11.9492L4.86914,10.7539C4.625,10.5098,4.625,10.1133,4.86914,9.86914L6.06445,8.67383C6.0957,8.64258,6.14453,8.64258,6.17578,8.67383L6.94922,9.44726C6.98047,9.47851,6.98047,9.52734,6.94922,9.55859L6.41797,10.0898C6.29688,10.2109,6.29688,10.4102,6.41797,10.5312L6.94922,11.0625C6.98047,11.0937,6.98047,11.1426,6.94922,11.1738L6.17578,11.9473C6.14453,11.9805,6.0957,11.9805,6.06445,11.9492ZM13.8242,11.9492L13.0508,11.1758C13.0195,11.1445,13.0195,11.0957,13.0508,11.0645L13.582,10.5332C13.7031,10.4121,13.7031,10.2129,13.582,10.0918L13.0508,9.56055C13.0195,9.5293,13.0195,9.48047,13.0508,9.44922L13.8242,8.67578C13.8555,8.64453,13.9043,8.64453,13.9355,8.67578L15.1309,9.87109C15.375,10.1152,15.375,10.5117,15.1309,10.7559L13.9355,11.9512C13.9043,11.9805,13.8555,11.9805,13.8242,11.9492Z" fill="#445564" fill-opacity="1" style="mix-blend-mode:passthrough"/></g></svg>