<svg xmlns="http://www.w3.org/2000/svg" xmlns:xlink="http://www.w3.org/1999/xlink" fill="none" version="1.1" width="20" height="20" viewBox="0 0 20 20"><g transform="matrix(-1,0,0,1,40,0)"><g><path d="M35.83336030883789,18.333356494140624L24.16666030883789,18.333356494140624C22.75000030883789,18.333356494140624,21.66666030883789,17.249956494140626,21.66666030883789,15.833356494140626L21.66666030883789,4.166656494140625C21.66666030883789,2.7499964941406247,22.75000030883789,1.666656494140625,24.16666030883789,1.666656494140625L35.83336030883789,1.666656494140625C37.24996030883789,1.666656494140625,38.33336030883789,2.7499964941406247,38.33336030883789,4.166656494140625L38.33336030883789,15.833356494140626C38.33336030883789,17.249956494140626,37.24996030883789,18.333356494140624,35.83336030883789,18.333356494140624ZM24.16666030883789,3.333336494140625C23.66666030883789,3.333336494140625,23.33334030883789,3.666656494140625,23.33334030883789,4.166656494140625L23.33334030883789,15.833356494140626C23.33334030883789,16.333356494140624,23.66666030883789,16.666656494140625,24.16666030883789,16.666656494140625L35.83336030883789,16.666656494140625C36.33336030883789,16.666656494140625,36.66666030883789,16.333356494140624,36.66666030883789,15.833356494140626L36.66666030883789,4.166656494140625C36.66666030883789,3.666656494140625,36.33336030883789,3.333336494140625,35.83336030883789,3.333336494140625L24.16666030883789,3.333336494140625Z" fill="#445564" fill-opacity="1"/></g><g><path d="M23,17.2C23,17.68,24.00001,18,25.5,18C26.99999,18,28,17.68,28,17.2L28,2.8000059999999998C28,2.3200060000000002,26.99999,2,25.5,2C24.00001,2,23,2.3200060000000002,23,2.8000059999999998L23,17.2ZM26,11C25.5,11.375,24,10.25,24,9.5C24,8.75,25.5,7.625,26,8L26,11Z" fill-rule="evenodd" fill="#445564" fill-opacity="1"/></g></g></svg>