<svg xmlns="http://www.w3.org/2000/svg" xmlns:xlink="http://www.w3.org/1999/xlink" fill="none" version="1.1" width="20" height="20" viewBox="0 0 20 20"><g transform="matrix(-1,0,0,1,40,0)"><g transform="matrix(-1,0,0,1,78,0)"><path d="M41.520830000000004,1C40.12862,1,39,2.1286199999999997,39,3.52083L39,7.1875C39,8.57972,40.12862,9.70833,41.520830000000004,9.70833L45.1875,9.70833C46.57972,9.70833,47.708330000000004,8.57972,47.708330000000004,7.1875L47.708330000000004,3.52083C47.708330000000004,2.1286199999999997,46.57972,1,45.1875,1L41.520830000000004,1ZM40.9375,6.49013C40.9375,7.28949,41.58551,7.9375,42.38487,7.9375L44.49013,7.9375C45.28949,7.9375,45.9375,7.28949,45.9375,6.49013L45.9375,4.384869999999999C45.9375,3.58551,45.28949,2.9375,44.49013,2.9375L42.38487,2.9375C41.58551,2.9375,40.9375,3.58551,40.9375,4.384869999999999L40.9375,6.49013ZM49.0833,4.4375C49.0833,4.0578,49.3911,3.75,49.7708,3.75L50.6875,3.75C52.0797,3.75,53.2083,4.87862,53.2083,6.27083L53.2083,6.53942C53.5109,6.43301,53.8469,6.54997,54.018,6.82129C54.189,7.0926,54.1498,7.44616,53.9233,7.67333L53.0067,8.59C52.7382,8.858080000000001,52.303399999999996,8.858080000000001,52.035,8.59L51.1183,7.67333C50.8919,7.44616,50.8526,7.0926,51.0237,6.82128C51.1948,6.54997,51.530699999999996,6.43301,51.8333,6.53942L51.8333,6.27083C51.8333,5.63833,51.32,5.125,50.6875,5.125L49.7708,5.125C49.3911,5.125,49.0833,4.8172,49.0833,4.4375ZM50.6875,10.16667C49.2953,10.16667,48.166669999999996,11.2953,48.166669999999996,12.6875L48.166669999999996,16.3542C48.166669999999996,17.7464,49.2953,18.875,50.6875,18.875L54.3542,18.875C55.7464,18.875,56.875,17.7464,56.875,16.3542L56.875,12.6875C56.875,11.2953,55.7464,10.16667,54.3542,10.16667L50.6875,10.16667ZM51.3849,16.9375C50.585499999999996,16.9375,49.9375,16.2895,49.9375,15.4901L49.9375,13.3849C49.9375,12.5855,50.585499999999996,11.9375,51.3849,11.9375L53.4901,11.9375C54.289500000000004,11.9375,54.9375,12.5855,54.9375,13.3849L54.9375,15.4901C54.9375,16.2895,54.289500000000004,16.9375,53.4901,16.9375L51.3849,16.9375Z" fill-rule="evenodd" fill="#445564" fill-opacity="1" style="mix-blend-mode:passthrough"/></g></g></svg>