<svg xmlns="http://www.w3.org/2000/svg" xmlns:xlink="http://www.w3.org/1999/xlink" fill="none" version="1.1" width="20" height="18" viewBox="0 0 20 18"><g><path d="M19.8912,9.9255C20.1124,10.4862,19.99,11.1315,19.5812,11.5605L16.7241,14.5605C16.4565,14.8422,16.0931,15.0004,15.7141,15C15.3352,15.0004,14.9717,14.8422,14.7041,14.5605L11.847,11.5605C11.4388,11.1312,11.3165,10.4862,11.537,9.9255C11.7587,9.36518,12.2795,9,12.857,9L14.2856,9C14.2856,5.6865,11.727,3,8.57134,3C5.41566,3,2.85711,5.6865,2.85711,9C2.85711,12.3135,5.41566,15,8.57134,15C9.31562,15,10.0199,14.841,10.6727,14.5695L12.827,16.8045C11.5328,17.5877,10.0652,18,8.57134,18C3.83853,18,0,13.9695,0,9C0,4.0305,3.83853,0,8.57134,0C13.3041,0,17.1427,4.0305,17.1427,9L18.5712,9C19.1484,9,19.6712,9.366,19.8912,9.9255Z" fill="#445564" fill-opacity="1"/></g></svg>